# 3ds Max Wavefront OBJ Exporter v0.97b - (c)2007 guruware
# File Created: 30.01.2018 15:40:08

mtllib Leaf.mtl

#
# object Plane001
#

v  -4.5828 4.7788 9.9646
v  15.4172 10.0212 9.9646
v  15.4172 13.4399 -10.0354
v  -4.5828 10.0212 -10.0354
v  35.4172 10.7841 9.9646
v  35.4172 13.4399 -10.0354
v  15.4172 13.4399 -30.0354
v  -4.5828 11.7850 -30.0354
v  35.4172 13.4399 -30.0354
# 9 vertices

vn -0.2070 0.9562 0.2070
vn -0.1373 0.9779 0.1577
vn -0.0942 0.9911 0.0942
vn -0.1455 0.9780 0.1498
vn -0.0378 0.9906 0.1315
vn -0.0094 0.9971 0.0753
vn -0.0631 0.9978 0.0218
vn -0.0821 0.9928 0.0875
vn 0.0000 1.0000 -0.0000
# 9 vertex normals

vt 0.0000 0.0000 0.0000
vt 0.5000 0.0000 0.0000
vt 0.5000 0.5000 0.0000
vt 0.0000 0.5000 0.0000
vt 1.0000 0.0000 0.0000
vt 1.0000 0.5000 0.0000
vt 0.5000 1.0000 0.0000
vt 0.0000 1.0000 0.0000
vt 1.0000 1.0000 0.0000
# 9 texture coords

g Plane001
usemtl Material__1
s 1
f 1/1/1 2/2/2 3/3/3 4/4/4 
f 2/2/2 5/5/5 6/6/6 3/3/3 
f 4/4/4 3/3/3 7/7/7 8/8/8 
f 3/3/3 6/6/6 9/9/9 7/7/7 
# 4 polygons

