# 3ds Max Wavefront OBJ Exporter v0.97b - (c)2007 guruware
# File Created: 06.04.2018 14:28:31

mtllib conveyor_normal_v2.mtl

#
# object conveyor
#

v  -13.5985 19.7341 15.0000
v  13.4834 19.7341 15.0000
v  13.4834 19.7341 -15.0000
v  -13.5985 19.7341 -15.0000
v  -14.9164 18.1934 -15.0000
v  -14.9164 18.1934 15.0000
v  14.5883 13.2098 -15.0000
v  14.5883 13.2098 15.0000
v  14.6405 12.0213 15.0000
v  14.6405 12.0213 -15.0000
v  -15.4712 15.6147 -15.0000
v  -15.4712 15.6147 15.0000
v  -15.2897 17.2318 15.0000
v  -15.2897 17.2318 -15.0000
v  14.7532 18.1332 15.0000
v  14.7532 18.1332 -15.0000
v  15.1715 17.1714 -15.0000
v  15.1715 17.1714 15.0000
v  15.4712 15.8758 15.0000
v  15.4712 15.8758 -15.0000
v  -15.3294 14.0370 -15.0000
v  -15.3294 14.0370 15.0000
v  -15.4316 14.5752 15.0000
v  -15.4316 14.5752 -15.0000
v  15.4421 14.8549 -15.0000
v  15.4421 14.8549 15.0000
v  15.2006 14.0270 15.0000
v  15.2006 14.0270 -15.0000
v  -14.8738 12.0213 -15.0000
v  -14.8738 12.0213 15.0000
v  -14.7599 13.2187 15.0000
v  -14.7599 13.2187 -15.0000
v  -14.3151 17.8925 -14.7088
v  -13.2682 19.1164 -14.7088
v  13.1377 19.1164 -14.7088
v  14.1552 17.8336 -14.7088
v  14.0661 13.6072 14.7088
v  14.5764 14.2882 14.7088
v  -14.6855 14.2640 14.7088
v  -14.2337 13.6147 14.7088
v  13.0296 12.0213 -15.0000
v  13.0430 12.6826 -15.0000
v  -13.1203 12.0213 -15.0000
v  -13.1532 12.6826 -15.0000
v  -14.2337 13.6147 -15.0000
v  -14.6855 14.2640 -15.0000
v  -14.7567 14.6390 -15.0000
v  -14.7931 15.5939 -15.0000
v  -14.6246 17.0952 -15.0000
v  -14.3151 17.8925 -15.0000
v  -13.2682 19.1164 -15.0000
v  13.1377 19.1164 -15.0000
v  14.1552 17.8336 -15.0000
v  14.5211 16.9924 -15.0000
v  14.7925 15.8193 -15.0000
v  14.7675 14.9436 -15.0000
v  14.5764 14.2882 -15.0000
v  14.0661 13.6072 -15.0000
v  13.1377 19.1164 15.0000
v  14.1552 17.8336 15.0000
v  -13.2682 19.1164 15.0000
v  -14.3151 17.8925 15.0000
v  -14.6246 17.0952 15.0000
v  -14.7931 15.5939 15.0000
v  -14.7567 14.6390 15.0000
v  -14.6855 14.2640 15.0000
v  -14.2337 13.6147 15.0000
v  -13.1532 12.6826 15.0000
v  -13.1505 12.0213 15.0000
v  13.0497 12.0213 15.0000
v  13.0430 12.6826 15.0000
v  14.5764 14.2882 15.0000
v  14.0661 13.6072 15.0000
v  14.7675 14.9436 15.0000
v  14.7925 15.8193 15.0000
v  14.5211 16.9924 15.0000
v  -13.1532 12.6826 -14.7088
v  13.0430 12.6826 -14.7088
v  -14.2337 13.6147 -14.7088
v  -14.6855 14.2640 -14.7088
v  -14.7567 14.6390 -14.7088
v  -14.7931 15.5939 -14.7088
v  -14.6246 17.0952 -14.7088
v  14.5211 16.9924 -14.7088
v  14.7925 15.8193 -14.7088
v  14.7675 14.9436 -14.7088
v  14.5764 14.2882 -14.7088
v  14.0661 13.6072 -14.7088
v  13.1377 19.1164 14.7088
v  14.1552 17.8336 14.7088
v  -13.2682 19.1164 14.7088
v  -14.3151 17.8925 14.7088
v  -14.6246 17.0952 14.7088
v  -14.7931 15.5939 14.7088
v  -14.7567 14.6390 14.7088
v  -13.1532 12.6826 14.7088
v  13.0430 12.6826 14.7088
v  14.7675 14.9436 14.7088
v  14.7925 15.8193 14.7088
v  14.5211 16.9924 14.7088
v  -14.9516 -0.3094 15.0000
v  -14.9516 -0.3094 -15.0000
v  15.0484 -0.3094 -15.0000
v  15.0484 -0.3094 15.0000
v  -12.9516 7.3599 14.0000
v  -12.9516 1.6906 14.0000
v  13.0484 1.6906 14.0000
v  13.0484 7.3599 14.0000
v  14.0484 7.3599 -13.0000
v  14.0484 7.3599 13.0000
v  14.0484 1.6906 13.0000
v  14.0484 1.6906 -13.0000
v  13.0484 7.3599 -14.0000
v  13.0484 1.6906 -14.0000
v  -12.9516 1.6906 -14.0000
v  -12.9516 7.3599 -14.0000
v  -13.9516 7.3599 -13.0000
v  -13.9516 1.6906 -13.0000
v  -13.9516 1.6906 13.0000
v  -13.9516 7.3599 13.0000
v  15.0484 1.6906 -13.0000
v  15.0484 1.6906 13.0000
v  15.0484 7.3599 -15.0000
v  15.0484 7.3599 -13.0000
v  -14.9516 1.6906 13.0000
v  -14.9516 1.6906 -13.0000
v  -14.9516 7.3599 15.0000
v  -14.9516 7.3599 13.0000
v  13.0484 1.6906 15.0000
v  -12.9516 1.6906 15.0000
v  15.0484 7.3599 15.0000
v  13.0484 7.3599 15.0000
v  -12.9516 1.6906 -15.0000
v  13.0484 1.6906 -15.0000
v  -14.9516 7.3599 -15.0000
v  -12.9516 7.3599 -15.0000
v  -14.9516 7.3599 -13.0000
v  -12.9516 7.3599 15.0000
v  13.0484 7.3599 -15.0000
v  15.0484 7.3599 13.0000
# 140 vertices

vn 0.0000 1.0000 -0.0000
vn -0.7883 0.6153 -0.0000
vn -0.8768 0.4808 -0.0000
vn 0.9611 -0.2762 -0.0000
vn 0.9992 0.0400 -0.0000
vn -0.9994 0.0336 -0.0000
vn -0.9756 0.2195 -0.0000
vn 0.8101 0.5863 -0.0000
vn 0.8765 0.4813 -0.0000
vn 0.9574 0.2888 -0.0000
vn 0.9959 0.0909 -0.0000
vn -0.9328 -0.3604 -0.0000
vn -0.9947 -0.1030 -0.0000
vn 0.9898 -0.1426 -0.0000
vn 0.9090 -0.4168 -0.0000
vn -0.9962 0.0865 -0.0000
vn -0.9714 -0.2373 -0.0000
vn 0.0000 0.0000 -1.0000
vn 0.0000 0.0000 1.0000
vn 0.6870 0.7267 -0.0000
vn 0.8442 0.5361 -0.0000
vn 0.9853 0.1708 -0.0000
vn 0.9994 0.0348 -0.0000
vn 0.9948 -0.1019 -0.0000
vn 0.9426 -0.3339 -0.0000
vn 0.7883 -0.6153 -0.0000
vn 0.0000 -1.0000 -0.0000
vn -0.8101 -0.5863 -0.0000
vn -0.9295 -0.3689 -0.0000
vn -0.9784 -0.2066 -0.0000
vn -0.9997 0.0260 -0.0000
vn -0.9664 0.2572 -0.0000
vn -0.8255 0.5644 -0.0000
vn -0.7037 0.7105 -0.0000
vn 1.0000 0.0000 -0.0000
vn -1.0000 0.0000 -0.0000
vn -0.9999 0.0152 -0.0000
vn 0.9968 0.0796 0.0000
vn 0.9968 0.0796 -0.0000
vn 0.0000 -1.0000 0.0000
# 40 vertex normals

vt 0.0058 0.9956 0.0000
vt 0.0058 0.7241 0.0000
vt 0.3353 0.7241 0.0000
vt 0.3353 0.9956 0.0000
vt 0.0062 0.7184 0.0000
vt 0.0062 0.7015 0.0000
vt 0.3357 0.7015 0.0000
vt 0.3357 0.7184 0.0000
vt 0.6721 0.6447 0.0000
vt 0.3426 0.6447 0.0000
vt 0.3426 0.6317 0.0000
vt 0.6721 0.6317 0.0000
vt 0.0062 0.6732 0.0000
vt 0.3357 0.6732 0.0000
vt 0.3357 0.6910 0.0000
vt 0.0062 0.6910 0.0000
vt 0.6721 0.7164 0.0000
vt 0.3426 0.7164 0.0000
vt 0.3426 0.6988 0.0000
vt 0.6721 0.6988 0.0000
vt 0.6721 0.6883 0.0000
vt 0.3426 0.6883 0.0000
vt 0.3426 0.6740 0.0000
vt 0.6721 0.6740 0.0000
vt 0.0062 0.6559 0.0000
vt 0.3357 0.6559 0.0000
vt 0.3357 0.6618 0.0000
vt 0.0062 0.6618 0.0000
vt 0.6721 0.6628 0.0000
vt 0.3426 0.6628 0.0000
vt 0.3426 0.6537 0.0000
vt 0.6721 0.6537 0.0000
vt 0.0062 0.6337 0.0000
vt 0.3357 0.6337 0.0000
vt 0.3357 0.6469 0.0000
vt 0.0062 0.6469 0.0000
vt 0.6339 0.9003 0.0000
vt 0.6234 0.9138 0.0000
vt 0.3587 0.9138 0.0000
vt 0.3485 0.8997 0.0000
vt 0.6332 0.9309 0.0000
vt 0.6383 0.9384 0.0000
vt 0.3450 0.9381 0.0000
vt 0.3495 0.9310 0.0000
vt 0.3417 0.3895 0.0000
vt 0.3578 0.3895 0.0000
vt 0.3577 0.3967 0.0000
vt 0.6199 0.3895 0.0000
vt 0.6203 0.3967 0.0000
vt 0.6375 0.3895 0.0000
vt 0.6364 0.4026 0.0000
vt 0.6311 0.4070 0.0000
vt 0.6421 0.4116 0.0000
vt 0.6356 0.4141 0.0000
vt 0.6431 0.4175 0.0000
vt 0.6363 0.4182 0.0000
vt 0.6435 0.4289 0.0000
vt 0.6367 0.4287 0.0000
vt 0.6417 0.4467 0.0000
vt 0.6350 0.4452 0.0000
vt 0.6379 0.4573 0.0000
vt 0.6319 0.4540 0.0000
vt 0.6247 0.4742 0.0000
vt 0.6214 0.4674 0.0000
vt 0.3533 0.4742 0.0000
vt 0.3568 0.4674 0.0000
vt 0.3406 0.4566 0.0000
vt 0.3466 0.4533 0.0000
vt 0.3364 0.4460 0.0000
vt 0.3429 0.4441 0.0000
vt 0.3334 0.4318 0.0000
vt 0.3402 0.4312 0.0000
vt 0.3337 0.4206 0.0000
vt 0.3404 0.4216 0.0000
vt 0.3361 0.4115 0.0000
vt 0.3423 0.4144 0.0000
vt 0.3422 0.4025 0.0000
vt 0.3474 0.4069 0.0000
vt 0.3093 0.4579 0.0000
vt 0.2966 0.4754 0.0000
vt 0.2931 0.4687 0.0000
vt 0.3033 0.4546 0.0000
vt 0.0251 0.4754 0.0000
vt 0.0285 0.4687 0.0000
vt 0.0119 0.4585 0.0000
vt 0.0180 0.4552 0.0000
vt 0.0082 0.4480 0.0000
vt 0.0149 0.4465 0.0000
vt 0.0064 0.4302 0.0000
vt 0.0132 0.4300 0.0000
vt 0.0068 0.4188 0.0000
vt 0.0135 0.4195 0.0000
vt 0.0078 0.4129 0.0000
vt 0.0142 0.4154 0.0000
vt 0.0135 0.4039 0.0000
vt 0.0188 0.4082 0.0000
vt 0.0124 0.3907 0.0000
vt 0.0296 0.3980 0.0000
vt 0.0296 0.3907 0.0000
vt 0.2922 0.3907 0.0000
vt 0.2922 0.3980 0.0000
vt 0.3082 0.3907 0.0000
vt 0.3077 0.4038 0.0000
vt 0.3138 0.4128 0.0000
vt 0.3075 0.4156 0.0000
vt 0.3024 0.4081 0.0000
vt 0.3162 0.4218 0.0000
vt 0.3095 0.4228 0.0000
vt 0.3165 0.4331 0.0000
vt 0.3097 0.4324 0.0000
vt 0.3135 0.4473 0.0000
vt 0.3070 0.4453 0.0000
vt 0.3620 0.8093 0.0000
vt 0.6246 0.8093 0.0000
vt 0.6246 0.8125 0.0000
vt 0.3620 0.8125 0.0000
vt 0.6354 0.8093 0.0000
vt 0.6354 0.8125 0.0000
vt 0.4900 0.7367 0.0000
vt 0.4971 0.7367 0.0000
vt 0.4971 0.7399 0.0000
vt 0.4900 0.7399 0.0000
vt 0.5012 0.7367 0.0000
vt 0.5012 0.7399 0.0000
vt 0.5117 0.7367 0.0000
vt 0.5117 0.7399 0.0000
vt 0.5282 0.7367 0.0000
vt 0.5282 0.7399 0.0000
vt 0.5369 0.7367 0.0000
vt 0.5369 0.7399 0.0000
vt 0.5504 0.7367 0.0000
vt 0.5504 0.7399 0.0000
vt 0.6222 0.7949 0.0000
vt 0.3575 0.7949 0.0000
vt 0.3575 0.7917 0.0000
vt 0.6222 0.7917 0.0000
vt 0.4784 0.7450 0.0000
vt 0.4643 0.7450 0.0000
vt 0.4643 0.7418 0.0000
vt 0.4784 0.7418 0.0000
vt 0.4551 0.7450 0.0000
vt 0.4551 0.7418 0.0000
vt 0.4422 0.7450 0.0000
vt 0.4422 0.7418 0.0000
vt 0.4326 0.7450 0.0000
vt 0.4326 0.7418 0.0000
vt 0.4254 0.7450 0.0000
vt 0.4254 0.7418 0.0000
vt 0.4179 0.7450 0.0000
vt 0.4179 0.7418 0.0000
vt 0.3518 0.8093 0.0000
vt 0.3518 0.8125 0.0000
vt 0.3945 0.7381 0.0000
vt 0.4085 0.7381 0.0000
vt 0.4085 0.7413 0.0000
vt 0.3945 0.7413 0.0000
vt 0.3529 0.7778 0.0000
vt 0.6176 0.7778 0.0000
vt 0.6176 0.7810 0.0000
vt 0.3529 0.7810 0.0000
vt 0.4784 0.7340 0.0000
vt 0.4649 0.7340 0.0000
vt 0.4649 0.7308 0.0000
vt 0.4784 0.7308 0.0000
vt 0.4562 0.7340 0.0000
vt 0.4562 0.7308 0.0000
vt 0.4397 0.7340 0.0000
vt 0.4397 0.7308 0.0000
vt 0.4292 0.7340 0.0000
vt 0.4292 0.7308 0.0000
vt 0.4251 0.7340 0.0000
vt 0.4251 0.7308 0.0000
vt 0.4180 0.7340 0.0000
vt 0.4180 0.7308 0.0000
vt 0.6283 0.7620 0.0000
vt 0.6175 0.7620 0.0000
vt 0.6175 0.7588 0.0000
vt 0.6283 0.7588 0.0000
vt 0.3549 0.7620 0.0000
vt 0.3549 0.7588 0.0000
vt 0.3447 0.7620 0.0000
vt 0.3447 0.7588 0.0000
vt 0.3480 0.7381 0.0000
vt 0.3555 0.7381 0.0000
vt 0.3555 0.7413 0.0000
vt 0.3480 0.7413 0.0000
vt 0.3627 0.7381 0.0000
vt 0.3627 0.7413 0.0000
vt 0.3723 0.7381 0.0000
vt 0.3723 0.7413 0.0000
vt 0.3852 0.7381 0.0000
vt 0.3852 0.7413 0.0000
vt 0.3448 0.8904 0.0000
vt 0.6370 0.8916 0.0000
vt 0.3597 0.8431 0.0000
vt 0.6222 0.8431 0.0000
vt 0.6331 0.8533 0.0000
vt 0.3494 0.8533 0.0000
vt 0.6376 0.8605 0.0000
vt 0.3443 0.8607 0.0000
vt 0.3424 0.8679 0.0000
vt 0.6383 0.8646 0.0000
vt 0.6387 0.8751 0.0000
vt 0.3421 0.8776 0.0000
vt 0.3603 0.9208 0.0000
vt 0.6229 0.9208 0.0000
vt 0.6402 0.9456 0.0000
vt 0.3443 0.9423 0.0000
vt 0.6404 0.9552 0.0000
vt 0.3439 0.9527 0.0000
vt 0.6377 0.9681 0.0000
vt 0.3456 0.9692 0.0000
vt 0.6340 0.9773 0.0000
vt 0.3487 0.9780 0.0000
vt 0.6238 0.9914 0.0000
vt 0.3592 0.9914 0.0000
vt 0.9963 0.3046 0.0000
vt 0.6668 0.3046 0.0000
vt 0.6668 0.0039 0.0000
vt 0.9963 0.0039 0.0000
vt 0.0335 0.1371 0.0000
vt 0.0335 0.0748 0.0000
vt 0.2941 0.0748 0.0000
vt 0.2941 0.1371 0.0000
vt 0.3069 0.2337 0.0000
vt 0.0214 0.2337 0.0000
vt 0.0214 0.1715 0.0000
vt 0.3069 0.1715 0.0000
vt 0.3476 0.1428 0.0000
vt 0.3476 0.0806 0.0000
vt 0.6082 0.0806 0.0000
vt 0.6082 0.1428 0.0000
vt 0.3389 0.2337 0.0000
vt 0.3389 0.1714 0.0000
vt 0.6245 0.1714 0.0000
vt 0.6245 0.2337 0.0000
vt 0.6501 0.5182 0.0000
vt 0.3645 0.5182 0.0000
vt 0.3426 0.4963 0.0000
vt 0.6721 0.4963 0.0000
vt 0.6721 0.5805 0.0000
vt 0.6501 0.5805 0.0000
vt 0.3137 0.5203 0.0000
vt 0.0281 0.5203 0.0000
vt 0.0062 0.4983 0.0000
vt 0.3357 0.4983 0.0000
vt 0.3357 0.5825 0.0000
vt 0.3137 0.5825 0.0000
vt 0.2922 0.2773 0.0000
vt 0.0316 0.2773 0.0000
vt 0.0116 0.2553 0.0000
vt 0.3123 0.2553 0.0000
vt 0.3123 0.3395 0.0000
vt 0.2922 0.3395 0.0000
vt 0.6182 0.2760 0.0000
vt 0.3576 0.2760 0.0000
vt 0.3376 0.2540 0.0000
vt 0.6383 0.2540 0.0000
vt 0.6383 0.3383 0.0000
vt 0.6182 0.3383 0.0000
vt 0.0281 0.5825 0.0000
vt 0.0062 0.5825 0.0000
vt 0.0316 0.3395 0.0000
vt 0.0116 0.3395 0.0000
vt 0.3576 0.3383 0.0000
vt 0.3376 0.3383 0.0000
vt 0.3645 0.5805 0.0000
vt 0.3426 0.5805 0.0000
vt 0.9847 0.9435 0.0000
vt 0.6992 0.9435 0.0000
vt 0.6992 0.9335 0.0000
vt 0.9847 0.9335 0.0000
vt 0.7578 0.7500 0.0000
vt 0.6956 0.7500 0.0000
vt 0.6956 0.7399 0.0000
vt 0.7578 0.7399 0.0000
vt 0.9851 0.8023 0.0000
vt 0.6995 0.8023 0.0000
vt 0.6995 0.7923 0.0000
vt 0.9851 0.7923 0.0000
vt 0.8396 0.7440 0.0000
vt 0.9018 0.7440 0.0000
vt 0.9018 0.7541 0.0000
vt 0.8396 0.7541 0.0000
vt 0.6992 0.9055 0.0000
vt 0.9847 0.9055 0.0000
vt 0.9847 0.9156 0.0000
vt 0.6992 0.9156 0.0000
vt 0.7600 0.7715 0.0000
vt 0.6977 0.7715 0.0000
vt 0.6977 0.7615 0.0000
vt 0.7600 0.7615 0.0000
vt 0.6995 0.8238 0.0000
vt 0.9851 0.8238 0.0000
vt 0.9851 0.8338 0.0000
vt 0.6995 0.8338 0.0000
vt 0.7664 0.7625 0.0000
vt 0.8287 0.7625 0.0000
vt 0.8287 0.7725 0.0000
vt 0.7664 0.7725 0.0000
vt 0.7270 0.8605 0.0000
vt 0.9876 0.8605 0.0000
vt 0.9876 0.8715 0.0000
vt 0.7270 0.8715 0.0000
vt 0.9719 0.7729 0.0000
vt 0.9097 0.7729 0.0000
vt 0.9097 0.7619 0.0000
vt 0.9719 0.7619 0.0000
vt 0.9876 0.8903 0.0000
vt 0.7270 0.8903 0.0000
vt 0.7270 0.8793 0.0000
vt 0.9876 0.8793 0.0000
vt 0.7662 0.7418 0.0000
vt 0.8284 0.7418 0.0000
vt 0.8284 0.7528 0.0000
vt 0.7662 0.7528 0.0000
vt 0.9858 0.9866 0.0000
vt 0.7252 0.9866 0.0000
vt 0.7252 0.9756 0.0000
vt 0.9858 0.9756 0.0000
vt 0.9018 0.7729 0.0000
vt 0.8396 0.7729 0.0000
vt 0.8396 0.7619 0.0000
vt 0.9018 0.7619 0.0000
vt 0.7252 0.9568 0.0000
vt 0.9858 0.9568 0.0000
vt 0.9858 0.9678 0.0000
vt 0.7252 0.9678 0.0000
vt 0.9122 0.7409 0.0000
vt 0.9745 0.7409 0.0000
vt 0.9745 0.7519 0.0000
vt 0.9122 0.7519 0.0000
# 332 texture coords

g conveyor
usemtl 02___Default
s 1
f 1/1/1 2/2/1 3/3/1 4/4/1 
s 4
f 4/5/2 5/6/3 6/7/3 1/8/2 
f 7/9/4 8/10/4 9/11/5 10/12/5 
f 11/13/6 12/14/6 13/15/7 14/16/7 
f 3/17/8 2/18/8 15/19/9 16/20/9 
f 17/21/10 18/22/10 19/23/11 20/24/11 
f 21/25/12 22/26/12 23/27/13 24/28/13 
f 25/29/14 26/30/14 27/31/15 28/32/15 
f 29/33/16 30/34/16 31/35/17 32/36/17 
s 2
f 33/37/18 34/38/18 35/39/18 36/40/18 
f 37/41/19 38/42/19 39/43/19 40/44/19 
s 4
f 5/6/3 14/16/7 13/15/7 6/7/3 
f 17/21/10 16/20/9 15/19/9 18/22/10 
f 25/29/14 20/24/11 19/23/11 26/30/14 
f 11/13/6 24/28/13 23/27/13 12/14/6 
f 7/9/4 28/32/15 27/31/15 8/10/4 
f 21/25/12 32/36/17 31/35/17 22/26/12 
s off
f 10/45/18 41/46/18 42/47/18 
f 41/46/18 43/48/18 44/49/18 42/47/18 
f 43/48/18 29/50/18 44/49/18 
f 29/50/18 32/51/18 45/52/18 44/49/18 
f 32/51/18 21/53/18 46/54/18 45/52/18 
f 21/53/18 24/55/18 47/56/18 46/54/18 
f 24/55/18 11/57/18 48/58/18 47/56/18 
f 11/57/18 14/59/18 49/60/18 48/58/18 
f 14/59/18 5/61/18 50/62/18 49/60/18 
f 5/61/18 4/63/18 51/64/18 50/62/18 
f 4/63/18 3/65/18 52/66/18 51/64/18 
f 3/65/18 16/67/18 53/68/18 52/66/18 
f 16/67/18 17/69/18 54/70/18 53/68/18 
f 17/69/18 20/71/18 55/72/18 54/70/18 
f 20/71/18 25/73/18 56/74/18 55/72/18 
f 25/73/18 28/75/18 57/76/18 56/74/18 
f 28/75/18 7/77/18 58/78/18 57/76/18 
f 7/77/18 42/47/18 58/78/18 
f 15/79/19 2/80/19 59/81/19 60/82/19 
f 2/80/19 1/83/19 61/84/19 59/81/19 
f 1/83/19 6/85/19 62/86/19 61/84/19 
f 6/85/19 13/87/19 63/88/19 62/86/19 
f 13/87/19 12/89/19 64/90/19 63/88/19 
f 12/89/19 23/91/19 65/92/19 64/90/19 
f 23/91/19 22/93/19 66/94/19 65/92/19 
f 22/93/19 31/95/19 67/96/19 66/94/19 
f 31/95/19 30/97/19 68/98/19 67/96/19 
f 30/97/19 69/99/19 68/98/19 
f 69/99/19 70/100/19 71/101/19 68/98/19 
f 70/100/19 9/102/19 71/101/19 
f 9/102/19 8/103/19 71/101/19 
f 8/103/19 27/104/19 72/105/19 73/106/19 
f 27/104/19 26/107/19 74/108/19 72/105/19 
f 26/107/19 19/109/19 75/110/19 74/108/19 
f 19/109/19 18/111/19 76/112/19 75/110/19 
f 18/111/19 15/79/19 60/82/19 76/112/19 
f 42/113/1 44/114/1 77/115/1 78/116/1 
f 44/114/20 45/117/20 79/118/20 77/115/20 
f 45/119/21 46/120/21 80/121/21 79/122/21 
f 46/120/22 47/123/22 81/124/22 80/121/22 
f 47/123/23 48/125/23 82/126/23 81/124/23 
f 48/125/24 49/127/24 83/128/24 82/126/24 
f 49/127/25 50/129/25 33/130/25 83/128/25 
f 50/129/26 51/131/26 34/132/26 33/130/26 
f 51/133/27 52/134/27 35/135/27 34/136/27 
f 52/137/28 53/138/28 36/139/28 35/140/28 
f 53/138/29 54/141/29 84/142/29 36/139/29 
f 54/141/30 55/143/30 85/144/30 84/142/30 
f 55/143/31 56/145/31 86/146/31 85/144/31 
f 56/145/32 57/147/32 87/148/32 86/146/32 
f 57/147/33 58/149/33 88/150/33 87/148/33 
f 58/151/34 42/113/34 78/116/34 88/152/34 
f 60/153/28 59/154/28 89/155/28 90/156/28 
f 59/157/27 61/158/27 91/159/27 89/160/27 
f 61/161/26 62/162/26 92/163/26 91/164/26 
f 62/162/25 63/165/25 93/166/25 92/163/25 
f 63/165/24 64/167/24 94/168/24 93/166/24 
f 64/167/23 65/169/23 95/170/23 94/168/23 
f 65/169/22 66/171/22 39/172/22 95/170/22 
f 66/171/21 67/173/21 40/174/21 39/172/21 
f 67/175/20 68/176/20 96/177/20 40/178/20 
f 68/176/1 71/179/1 97/180/1 96/177/1 
f 71/179/34 73/181/34 37/182/34 97/180/34 
f 73/183/33 72/184/33 38/185/33 37/186/33 
f 72/184/32 74/187/32 98/188/32 38/185/32 
f 74/187/31 75/189/31 99/190/31 98/188/31 
f 75/189/30 76/191/30 100/192/30 99/190/30 
f 76/191/29 60/153/29 90/156/29 100/192/29 
s 2
f 84/193/18 83/194/18 33/37/18 36/40/18 
f 78/195/18 77/196/18 79/197/18 88/198/18 
f 88/198/18 79/197/18 80/199/18 87/200/18 
f 86/201/18 81/202/18 82/203/18 85/204/18 
f 85/204/18 82/203/18 83/194/18 84/193/18 
f 87/200/18 80/199/18 81/202/18 86/201/18 
f 96/205/19 97/206/19 37/41/19 40/44/19 
f 98/207/19 95/208/19 39/43/19 38/42/19 
f 99/209/19 94/210/19 95/208/19 98/207/19 
f 100/211/19 93/212/19 94/210/19 99/209/19 
f 90/213/19 92/214/19 93/212/19 100/211/19 
f 89/215/19 91/216/19 92/214/19 90/213/19 
s off
f 101/217/27 102/218/27 103/219/27 104/220/27 
f 105/221/19 106/222/19 107/223/19 108/224/19 
f 109/225/35 110/226/35 111/227/35 112/228/35 
f 113/229/18 114/230/18 115/231/18 116/232/18 
f 117/233/36 118/234/36 119/235/36 120/236/36 
f 121/237/35 122/238/35 104/239/35 103/240/35 
f 121/237/35 103/240/35 123/241/35 124/242/35 
f 125/243/36 126/244/36 102/245/36 101/246/36 
f 125/243/36 101/246/36 127/247/36 128/248/36 
f 129/249/19 130/250/19 101/251/19 104/252/19 
f 129/249/19 104/252/19 131/253/19 132/254/19 
f 133/255/18 134/256/18 103/257/18 102/258/18 
f 133/255/18 102/258/18 135/259/18 136/260/18 
f 126/244/36 137/261/36 135/262/36 102/245/36 
f 130/250/19 138/263/19 127/264/19 101/251/19 
f 134/256/18 139/265/18 123/266/18 103/257/18 
f 69/99/19 138/263/19 132/254/19 70/100/19 
f 41/46/18 139/265/18 136/260/18 43/48/18 
f 29/33/36 137/261/36 128/248/36 30/34/37 
f 123/241/38 10/12/38 124/242/38 
f 127/247/37 30/34/37 128/248/37 
f 135/262/37 137/261/37 29/33/37 
f 70/100/19 132/254/19 131/253/19 9/102/19 
f 138/263/19 69/99/19 30/97/19 127/264/19 
f 43/48/18 136/260/18 135/259/18 29/50/18 
f 139/265/18 41/46/18 10/45/18 123/266/18 
f 9/11/35 140/267/35 124/242/35 10/12/39 
f 122/238/35 140/267/35 131/268/35 104/239/35 
f 131/268/39 140/267/39 9/11/39 
f 112/269/1 111/270/1 122/271/1 121/272/1 
f 109/273/19 112/274/19 121/275/19 124/276/19 
f 110/277/40 109/278/40 124/279/40 140/280/40 
f 111/281/18 110/282/18 140/283/18 122/284/18 
f 119/285/1 118/286/1 126/287/1 125/288/1 
f 120/289/18 119/290/18 125/291/18 128/292/18 
f 117/293/27 120/294/27 128/295/27 137/296/27 
f 118/297/19 117/298/19 137/299/19 126/300/19 
f 107/301/1 106/302/1 130/303/1 129/304/1 
f 108/305/36 107/306/36 129/307/36 132/308/36 
f 105/309/27 108/310/27 132/311/27 138/312/27 
f 106/313/35 105/314/35 138/315/35 130/316/35 
f 115/317/1 114/318/1 134/319/1 133/320/1 
f 116/321/35 115/322/35 133/323/35 136/324/35 
f 113/325/27 116/326/27 136/327/27 139/328/27 
f 114/329/36 113/330/36 139/331/36 134/332/36 
f 7/77/18 10/45/18 42/47/18 
f 8/103/19 73/106/19 71/101/19 
# 132 polygons - 12 triangles

