# 3ds Max Wavefront OBJ Exporter v0.97b - (c)2007 guruware
# File Created: 21.03.2018 02:54:27

mtllib grinder_v2_textured.mtl

#
# object Grinder
#

v  -15.0000 0.0000 15.0000
v  -15.0000 0.0000 -15.0000
v  15.0000 0.0000 -15.0000
v  15.0000 0.0000 15.0000
v  12.9366 19.5065 12.9366
v  12.9366 19.5065 -12.9366
v  -12.9366 19.5065 -12.9366
v  -12.9366 19.5065 12.9366
v  -13.2054 20.0000 15.0000
v  -15.0000 20.0000 15.0000
v  15.0000 20.0000 13.2734
v  15.0000 20.0000 15.0000
v  -15.0000 20.0000 -15.0000
v  15.0000 20.0000 -15.0000
v  1.4741 21.8927 -15.0000
v  1.4741 21.8927 -13.2576
v  15.0000 21.8927 -13.2643
v  15.0000 21.8927 -15.0000
v  -13.2576 20.0000 13.2576
v  13.2576 20.0000 13.2576
v  13.2576 20.0000 -13.2576
v  -13.2576 20.0000 -13.2576
v  -15.0000 20.0000 -13.2817
v  13.2376 20.0000 15.0000
v  13.2376 37.3701 15.0000
v  15.0000 37.3701 15.0000
v  15.0000 37.3701 13.2734
v  -15.0000 37.3701 13.3292
v  -15.0000 37.3701 15.0000
v  -13.2054 37.3701 15.0000
v  15.0000 20.0000 -13.2643
v  -15.0000 20.0000 13.3292
v  -15.0000 21.8927 -13.2817
v  -15.0000 21.8927 -15.0000
v  -1.4915 21.8927 -13.2576
v  15.0000 35.7021 13.2734
v  15.0000 35.7021 15.0000
v  13.2576 35.7021 13.2576
v  13.2376 35.7021 15.0000
v  -13.2054 35.7021 15.0000
v  -15.0000 35.7021 15.0000
v  -13.2576 35.7021 13.2576
v  -15.0000 35.7021 13.3292
v  1.4741 37.1373 -15.0000
v  -1.4169 37.1373 -15.0000
v  -1.4915 37.1373 -13.2576
v  1.4741 37.1373 -13.2576
v  -1.4169 21.8927 -15.0000
v  -1.4169 35.7021 -15.0000
v  1.4741 35.7021 -15.0000
v  -1.4915 35.7021 -13.2576
v  1.4741 35.7021 -13.2576
v  1.6923 35.7021 -0.0533
v  1.6980 37.3701 -0.0459
v  -0.0961 35.7021 1.2919
v  -0.0998 37.3701 1.3648
v  -0.5514 37.3701 1.3568
v  -2.0486 37.3701 0.0931
v  -0.5555 35.7021 1.2841
v  -2.0421 35.7021 0.0851
v  -2.2548 37.3328 -2.2948
v  1.9661 37.3327 -2.4059
v  1.9661 35.7021 -2.4060
v  -2.2548 35.7021 -2.2949
v  -1.3526 42.1159 -0.3015
v  -0.3488 42.1144 0.5458
v  -0.2328 42.1143 0.5479
v  0.9971 42.1156 -0.4172
v  -0.2361 21.9430 1.6501
v  -0.5309 21.9430 1.6451
v  -2.5129 21.9430 0.0466
v  2.1943 21.9430 -0.1779
v  -0.4703 41.8805 0.8692
v  -1.6221 41.8805 -0.1029
v  1.2601 41.8805 -0.2098
v  -0.1229 41.8805 0.8754
v  2.0394 37.3618 -0.7899
v  2.0078 37.3493 -1.4862
v  1.4984 41.8645 -1.3178
v  1.5227 41.8742 -0.7822
v  1.5267 37.3410 -1.9341
v  -1.8266 37.3410 -1.8475
v  -1.4513 41.8581 -1.5958
v  1.1283 41.8581 -1.6624
v  -2.3188 37.3492 -1.3764
v  -2.3684 37.3619 -0.6631
v  -1.8682 41.8742 -0.6846
v  -1.8300 41.8644 -1.2333
v  -2.9896 22.3075 0.4103
v  -0.7408 22.3075 2.2240
v  -2.3684 35.7021 -0.6632
v  -2.3188 35.7021 -1.3763
v  -3.4083 22.3075 -1.8006
v  -3.4834 22.3075 -0.7218
v  -1.8266 35.7021 -1.8475
v  1.5267 35.7021 -1.9341
v  2.4091 22.3075 -2.6444
v  -2.6636 22.3075 -2.5134
v  2.0078 35.7021 -1.4861
v  2.0394 35.7021 -0.7900
v  3.1847 22.3075 -0.9136
v  3.1370 22.3075 -1.9666
v  -0.0459 22.3075 2.2358
v  2.6596 22.3075 0.2008
v  -2.8925 21.9430 -0.8238
v  -2.8429 21.9430 -1.5356
v  -2.4235 21.9430 -1.9370
v  2.1863 21.9430 -2.0561
v  2.5659 21.9430 -1.7026
v  2.5964 21.9430 -1.0313
v  1.1939 42.1108 -0.8462
v  1.1792 42.1036 -1.1702
v  1.0037 42.0993 -1.3335
v  -1.3171 42.0993 -1.2736
v  -1.5139 42.1037 -1.0852
v  -1.5380 42.1112 -0.7397
# 116 vertices

vn 0.0000 -1.0000 -0.0000
vn 0.0000 1.0000 -0.0000
vn 0.0000 0.0000 1.0000
vn 1.0000 0.0000 -0.0000
vn 0.0000 0.0000 -1.0000
vn 0.0000 0.5454 -0.8382
vn -0.8382 0.5454 -0.0000
vn 0.0010 0.1447 0.9895
vn -0.0037 0.1489 0.9888
vn 0.0000 0.5454 0.8382
vn 0.8382 0.5454 -0.0000
vn -1.0000 0.0000 -0.0000
vn -0.0138 0.0000 0.9999
vn -0.0075 0.0058 1.0000
vn -0.0001 0.0004 1.0000
vn 0.0038 0.0000 1.0000
vn 0.0021 0.0016 1.0000
vn 0.0091 0.0000 -1.0000
vn -0.9999 0.0000 -0.0115
vn 0.9996 0.0000 -0.0300
vn -0.0410 0.0000 -0.9992
vn -0.0001 1.0000 -0.0093
vn 0.0000 1.0000 -0.0091
vn -0.9991 0.0000 -0.0428
vn -0.9987 0.0000 -0.0517
vn 0.0000 0.0001 1.0000
vn 0.9999 0.0000 -0.0151
vn -0.9984 0.0000 -0.0562
vn 0.9997 0.0000 -0.0228
vn 0.7076 0.0000 -0.7066
vn 0.9855 -0.0026 -0.1695
vn 0.9839 -0.0005 -0.1789
vn -0.7150 -0.0018 0.6991
vn -0.7149 0.0000 0.6993
vn -0.0949 0.0366 0.9948
vn -0.0584 0.0190 0.9981
vn 0.7333 -0.0018 0.6799
vn 0.3897 -0.0410 0.9200
vn 0.3964 -0.0401 0.9172
vn 0.7332 0.0000 0.6800
vn -0.7148 0.0000 -0.6993
vn -0.9818 -0.0029 -0.1900
vn -0.9836 -0.0007 -0.1803
vn -0.0005 0.9998 -0.0179
vn -0.0004 0.9998 -0.0179
vn -0.9976 0.0000 -0.0695
vn 0.9990 0.0000 -0.0453
vn -0.0002 1.0000 -0.0071
vn 0.0010 1.0000 0.0005
vn 0.0004 1.0000 0.0013
vn -0.0002 1.0000 -0.0082
vn -0.8035 0.1015 0.5866
vn -0.6422 0.0938 0.7608
vn -0.7989 0.1013 0.5928
vn 0.7850 0.0985 0.6116
vn 0.7783 0.0981 0.6202
vn 0.6149 0.0882 0.7837
vn 0.9916 0.0741 0.1061
vn 0.9983 0.0372 -0.0459
vn 0.9924 0.1137 -0.0470
vn 0.9746 0.1113 0.1941
vn -0.0258 0.0578 -0.9980
vn -0.9969 0.0359 -0.0700
vn -0.9940 0.0728 0.0813
vn -0.9800 0.1094 0.1662
vn -0.9914 0.1096 -0.0710
vn -0.6265 0.0632 0.7768
vn -0.7909 0.0707 0.6079
vn -0.7952 0.0709 0.6022
vn -0.9943 0.0541 0.0915
vn -0.9972 0.0280 -0.0694
vn -0.9941 0.0831 -0.0692
vn -0.9827 0.0811 0.1668
vn -0.0258 0.0512 -0.9984
vn 0.9986 0.0289 -0.0453
vn 0.9915 0.0545 0.1178
vn 0.9780 0.0819 0.1918
vn 0.9953 0.0855 -0.0451
vn 0.7708 0.0677 0.6335
vn 0.6001 0.0585 0.7978
vn 0.7767 0.0680 0.6261
vn -0.0005 0.9998 -0.0180
vn 0.6768 0.1035 -0.7288
vn -0.6873 0.0972 -0.7198
vn -0.6893 0.0789 -0.7201
vn 0.6791 0.0834 -0.7293
vn -0.0177 0.1078 0.9940
vn -0.0169 0.0702 0.9974
vn -0.3331 -0.8476 0.4130
vn -0.4863 -0.8476 0.2121
vn -0.5293 -0.8476 -0.0369
vn -0.3669 -0.8476 -0.3833
vn -0.0137 -0.8476 -0.5304
vn 0.3616 -0.8476 -0.3883
vn 0.5300 -0.8476 -0.0240
vn 0.4800 -0.8476 0.2261
vn 0.3189 -0.8476 0.4240
vn -0.0090 -0.8476 0.5305
vn -0.3768 0.8113 0.4471
vn -0.0102 0.8122 0.5833
vn 0.3605 0.8115 0.4599
vn 0.5367 0.8097 0.2372
vn 0.5877 0.8080 -0.0425
vn 0.3961 0.8047 -0.4422
vn -0.0154 0.8035 -0.5951
vn -0.4027 0.8046 -0.4364
vn -0.5871 0.8076 -0.0565
vn -0.5439 0.8094 0.2214
vn 0.9059 -0.0036 0.4235
vn 0.9089 -0.0000 0.4170
vn -0.0171 -0.0435 0.9989
vn -0.0178 -0.0437 0.9989
vn -0.9197 -0.0039 0.3926
vn -0.9166 -0.0000 0.3998
vn -0.0007 0.9997 -0.0233
vn -0.0007 0.9997 -0.0254
vn -0.0007 0.9997 -0.0241
vn -0.0007 0.9997 -0.0225
vn -0.0005 0.9998 -0.0178
vn -0.0006 0.9999 -0.0167
# 120 vertex normals

vt 0.7047 0.2988 0.0000
vt 0.7047 0.0128 0.0000
vt 0.9907 0.0128 0.0000
vt 0.9907 0.2988 0.0000
vt 0.9921 0.7396 0.0000
vt 0.9921 0.9863 0.0000
vt 0.7455 0.9863 0.0000
vt 0.7455 0.7396 0.0000
vt 0.0215 0.6314 0.0000
vt 0.0386 0.8220 0.0000
vt 0.0215 0.8220 0.0000
vt 0.3213 0.5939 0.0000
vt 0.3378 0.7846 0.0000
vt 0.3213 0.7846 0.0000
vt 0.0147 0.2545 0.0000
vt 0.3007 0.2545 0.0000
vt 0.3007 0.4452 0.0000
vt 0.0147 0.4452 0.0000
vt 0.1722 0.1448 0.0000
vt 0.1722 0.1282 0.0000
vt 0.3011 0.1282 0.0000
vt 0.3011 0.1448 0.0000
vt 0.3422 0.1266 0.0000
vt 0.5950 0.1266 0.0000
vt 0.5920 0.1313 0.0000
vt 0.3453 0.1313 0.0000
vt 0.2682 0.0272 0.0000
vt 0.2652 0.0319 0.0000
vt 0.0185 0.0319 0.0000
vt 0.0154 0.0272 0.0000
vt 0.2768 0.0964 0.0000
vt 0.0240 0.0964 0.0000
vt 0.0271 0.0917 0.0000
vt 0.2737 0.0917 0.0000
vt 0.3422 0.1565 0.0000
vt 0.5950 0.1565 0.0000
vt 0.5920 0.1612 0.0000
vt 0.3453 0.1612 0.0000
vt 0.3229 0.1848 0.0000
vt 0.3393 0.3754 0.0000
vt 0.3229 0.3754 0.0000
vt 0.0105 0.0527 0.0000
vt 0.2626 0.0527 0.0000
vt 0.2628 0.0693 0.0000
vt 0.0100 0.0693 0.0000
vt 0.8076 0.5490 0.0000
vt 0.8197 0.5373 0.0000
vt 0.8311 0.5492 0.0000
vt 0.9635 0.5534 0.0000
vt 0.9741 0.5415 0.0000
vt 0.9869 0.5529 0.0000
vt 0.6819 0.3188 0.0000
vt 0.6819 0.5718 0.0000
vt 0.6652 0.5718 0.0000
vt 0.6652 0.3190 0.0000
vt 0.7155 0.3188 0.0000
vt 0.7321 0.3195 0.0000
vt 0.7321 0.5723 0.0000
vt 0.7155 0.5725 0.0000
vt 0.1437 0.4632 0.0000
vt 0.0147 0.4632 0.0000
vt 0.3393 0.3935 0.0000
vt 0.3229 0.3935 0.0000
vt 0.0074 0.0964 0.0000
vt 0.0074 0.1144 0.0000
vt 0.1362 0.1144 0.0000
vt 0.2934 0.0964 0.0000
vt 0.2934 0.1144 0.0000
vt 0.5908 0.7846 0.0000
vt 0.6073 0.7846 0.0000
vt 0.6073 0.8026 0.0000
vt 0.5908 0.8026 0.0000
vt 0.3378 0.9343 0.0000
vt 0.3213 0.9343 0.0000
vt 0.9491 0.5725 0.0000
vt 0.9491 0.7222 0.0000
vt 0.9325 0.7222 0.0000
vt 0.9325 0.5725 0.0000
vt 0.8907 0.5788 0.0000
vt 0.8907 0.7285 0.0000
vt 0.8741 0.7285 0.0000
vt 0.8741 0.5788 0.0000
vt 0.3075 0.8220 0.0000
vt 0.3075 0.9717 0.0000
vt 0.2907 0.9717 0.0000
vt 0.2907 0.8220 0.0000
vt 0.0386 0.9717 0.0000
vt 0.0215 0.9717 0.0000
vt 0.9165 0.5730 0.0000
vt 0.9165 0.7227 0.0000
vt 0.8999 0.7227 0.0000
vt 0.8999 0.5730 0.0000
vt 0.8568 0.5668 0.0000
vt 0.8568 0.7165 0.0000
vt 0.8401 0.7165 0.0000
vt 0.8401 0.5668 0.0000
vt 0.6089 0.3754 0.0000
vt 0.6089 0.5251 0.0000
vt 0.5930 0.5251 0.0000
vt 0.5930 0.3754 0.0000
vt 0.7855 0.4016 0.0000
vt 0.7855 0.3740 0.0000
vt 0.8021 0.3733 0.0000
vt 0.8021 0.4016 0.0000
vt 0.3057 0.1746 0.0000
vt 0.1762 0.1746 0.0000
vt 0.1762 0.1582 0.0000
vt 0.3050 0.1580 0.0000
vt 0.1712 0.4632 0.0000
vt 0.1712 0.5948 0.0000
vt 0.1437 0.5948 0.0000
vt 0.3395 0.3935 0.0000
vt 0.3395 0.5251 0.0000
vt 0.3229 0.5251 0.0000
vt 0.1644 0.1144 0.0000
vt 0.1644 0.2461 0.0000
vt 0.1362 0.2461 0.0000
vt 0.6073 0.9343 0.0000
vt 0.5907 0.9343 0.0000
vt 0.5907 0.8026 0.0000
vt 0.3378 0.9502 0.0000
vt 0.3213 0.9502 0.0000
vt 0.3075 0.9876 0.0000
vt 0.2907 0.9876 0.0000
vt 0.0386 0.9876 0.0000
vt 0.0215 0.9876 0.0000
vt 0.6089 0.5410 0.0000
vt 0.5930 0.5410 0.0000
vt 0.1712 0.6085 0.0000
vt 0.1437 0.6085 0.0000
vt 0.3395 0.5388 0.0000
vt 0.3229 0.5388 0.0000
vt 0.6073 0.9480 0.0000
vt 0.5907 0.9480 0.0000
vt 0.4648 0.9343 0.0000
vt 0.4648 0.9502 0.0000
vt 0.6847 0.2025 0.0000
vt 0.6733 0.1904 0.0000
vt 0.6673 0.0196 0.0000
vt 0.6884 0.0230 0.0000
vt 0.9879 0.5090 0.0000
vt 0.9879 0.5249 0.0000
vt 0.8580 0.5249 0.0000
vt 0.8573 0.5090 0.0000
vt 0.8277 0.7286 0.0000
vt 0.8061 0.7308 0.0000
vt 0.9904 0.7302 0.0000
vt 0.9717 0.7297 0.0000
vt 0.8601 0.4829 0.0000
vt 0.9908 0.4829 0.0000
vt 0.9901 0.4988 0.0000
vt 0.8601 0.4988 0.0000
vt 0.6480 0.1973 0.0000
vt 0.6361 0.1857 0.0000
vt 0.6262 0.0210 0.0000
vt 0.6443 0.0195 0.0000
vt 0.4668 0.5410 0.0000
vt 0.4667 0.5251 0.0000
vt 0.9066 0.3661 0.0000
vt 0.9056 0.4063 0.0000
vt 0.9060 0.3137 0.0000
vt 0.9070 0.3540 0.0000
vt 0.8025 0.3467 0.0000
vt 0.8025 0.3184 0.0000
vt 0.4440 0.5251 0.0000
vt 0.4440 0.5407 0.0000
vt 0.4873 0.9498 0.0000
vt 0.4873 0.9343 0.0000
vt 0.9757 0.3180 0.0000
vt 0.9841 0.3273 0.0000
vt 0.9841 0.3284 0.0000
vt 0.9753 0.3404 0.0000
vt 0.9572 0.3596 0.0000
vt 0.9600 0.3597 0.0000
vt 0.9783 0.3757 0.0000
vt 0.9334 0.3761 0.0000
vt 0.6852 0.9391 0.0000
vt 0.6995 0.9391 0.0000
vt 0.7003 0.9821 0.0000
vt 0.6893 0.9821 0.0000
vt 0.7038 0.9391 0.0000
vt 0.7209 0.9391 0.0000
vt 0.7168 0.9821 0.0000
vt 0.7036 0.9821 0.0000
vt 0.4719 0.9501 0.0000
vt 0.4785 0.9500 0.0000
vt 0.4769 0.9930 0.0000
vt 0.4718 0.9931 0.0000
vt 0.6292 0.9379 0.0000
vt 0.6611 0.9379 0.0000
vt 0.6576 0.9810 0.0000
vt 0.6330 0.9810 0.0000
vt 0.4528 0.5408 0.0000
vt 0.4596 0.5409 0.0000
vt 0.4594 0.5840 0.0000
vt 0.4542 0.5839 0.0000
vt 0.6995 0.9232 0.0000
vt 0.6853 0.9232 0.0000
vt 0.6763 0.7955 0.0000
vt 0.6977 0.7955 0.0000
vt 0.4596 0.5251 0.0000
vt 0.4528 0.5251 0.0000
vt 0.4487 0.3974 0.0000
vt 0.4590 0.3974 0.0000
vt 0.7153 0.7732 0.0000
vt 0.6834 0.7732 0.0000
vt 0.6750 0.6455 0.0000
vt 0.7233 0.6455 0.0000
vt 0.4785 0.9343 0.0000
vt 0.4719 0.9343 0.0000
vt 0.4730 0.8066 0.0000
vt 0.4831 0.8066 0.0000
vt 0.7209 0.9232 0.0000
vt 0.7038 0.9232 0.0000
vt 0.7043 0.7955 0.0000
vt 0.7301 0.7955 0.0000
vt 0.9143 0.4067 0.0000
vt 0.9101 0.4021 0.0000
vt 0.9154 0.3654 0.0000
vt 0.9109 0.3701 0.0000
vt 0.9158 0.3546 0.0000
vt 0.9113 0.3499 0.0000
vt 0.9148 0.3133 0.0000
vt 0.9105 0.3179 0.0000
vt 0.4649 0.5840 0.0000
vt 0.4663 0.9932 0.0000
vt 0.6246 0.9380 0.0000
vt 0.6294 0.9810 0.0000
vt 0.6658 0.9380 0.0000
vt 0.6612 0.9810 0.0000
vt 0.4698 0.3974 0.0000
vt 0.7200 0.7732 0.0000
vt 0.7304 0.6455 0.0000
vt 0.6788 0.7732 0.0000
vt 0.6680 0.6455 0.0000
vt 0.4624 0.8066 0.0000
vt 0.9622 0.3543 0.0000
vt 0.9830 0.3724 0.0000
vt 0.9873 0.3834 0.0000
vt 0.9816 0.3841 0.0000
vt 0.9861 0.3936 0.0000
vt 0.9809 0.3909 0.0000
vt 0.9788 0.4002 0.0000
vt 0.9767 0.3946 0.0000
vt 0.9304 0.3995 0.0000
vt 0.9328 0.3940 0.0000
vt 0.9237 0.3928 0.0000
vt 0.9293 0.3905 0.0000
vt 0.9237 0.3827 0.0000
vt 0.9292 0.3841 0.0000
vt 0.9291 0.3723 0.0000
vt 0.9556 0.3539 0.0000
vt 0.9775 0.3154 0.0000
vt 0.9871 0.3261 0.0000
vt 0.9873 0.3294 0.0000
vt 0.9773 0.3429 0.0000
vt 0.9720 0.3455 0.0000
vt 0.9712 0.3424 0.0000
vt 0.9668 0.3455 0.0000
vt 0.9682 0.3424 0.0000
vt 0.9635 0.3420 0.0000
vt 0.9665 0.3408 0.0000
vt 0.9633 0.3174 0.0000
vt 0.9664 0.3186 0.0000
vt 0.9667 0.3137 0.0000
vt 0.9682 0.3167 0.0000
vt 0.9719 0.3132 0.0000
vt 0.9715 0.3164 0.0000
vt 0.3007 0.4632 0.0000
vt 0.6089 0.1848 0.0000
vt 0.3075 0.6314 0.0000
vt 0.6073 0.5939 0.0000
vt 0.6612 0.2018 0.0000
vt 0.6246 0.1977 0.0000
# 274 texture coords

g Grinder
usemtl Material__29
s 1
f 1/1/1 2/2/1 3/3/1 4/4/1 
f 5/5/2 6/6/2 7/7/2 8/8/2 
s 2
f 1/9/3 9/10/3 10/11/3 
s 4
f 4/12/4 11/13/4 12/14/4 
s 2
f 3/15/5 2/16/5 13/17/5 14/18/5 
s 1
f 15/19/2 16/20/2 17/21/2 18/22/2 
s 2
f 19/23/6 20/24/6 5/25/6 8/26/6 
s 4
f 21/27/7 6/28/7 5/29/7 20/30/7 
s 2
f 21/31/8 22/32/9 7/33/10 6/34/10 
s 4
f 22/35/11 19/36/11 8/37/11 7/38/11 
f 2/39/12 23/40/12 13/41/12 
s 1
f 9/42/2 24/43/2 20/44/2 19/45/2 
f 25/46/2 26/47/2 27/48/2 
f 28/49/2 29/50/2 30/51/2 
s 8
f 11/52/2 31/53/2 21/54/2 20/55/2 
f 32/56/2 19/57/2 22/58/2 23/59/2 
s 2
f 14/18/5 15/60/5 18/61/5 
s 4
f 13/41/12 23/40/12 33/62/12 34/63/12 
s 2
f 23/64/13 22/32/9 33/65/14 
f 22/32/9 35/66/15 33/65/14 
f 21/31/8 31/67/16 17/68/17 
s 4
f 31/69/4 14/70/4 18/71/4 17/72/4 
f 11/13/4 36/73/4 37/74/4 12/14/4 
s 16
f 20/75/18 38/76/18 36/77/18 11/78/18 
s 32
f 24/79/19 39/80/19 38/81/19 20/82/19 
s 2
f 12/83/3 37/84/3 39/85/3 24/86/3 
f 9/10/3 40/87/3 41/88/3 10/11/3 
s 16
f 19/89/20 42/90/20 40/91/20 9/92/20 
s 32
f 32/93/21 43/94/21 42/95/21 19/96/21 
s 4
f 10/97/12 41/98/12 43/99/12 32/100/12 
s 1
f 44/101/2 45/102/2 46/103/22 47/104/23 
f 48/105/2 34/106/2 33/107/2 35/108/2 
s 2
f 48/109/5 49/110/5 50/111/5 15/60/5 
s 4
f 35/112/24 51/113/25 49/114/24 48/63/24 
s 2
f 16/115/26 52/116/3 51/117/3 35/66/15 
s 4
f 15/71/4 50/118/4 52/119/27 16/120/4 
f 27/121/4 26/122/4 37/74/4 36/73/4 
s 2
f 26/123/3 25/124/3 39/85/3 37/84/3 
f 30/125/3 29/126/3 41/88/3 40/87/3 
s 4
f 29/127/12 28/128/12 43/99/12 41/98/12 
s 2
f 45/129/5 44/130/5 50/111/5 49/110/5 
s 4
f 46/131/28 45/132/24 49/114/24 51/113/25 
f 44/133/4 47/134/29 52/119/27 50/118/4 
s 2
f 36/73/30 53/135/31 54/136/32 27/121/30 
s 1
f 36/137/1 38/138/1 55/139/1 53/140/1 
s 4
f 39/141/33 25/142/34 56/143/35 55/144/36 
s 1
f 25/46/2 27/48/2 54/145/2 56/146/2 
f 28/49/2 30/51/2 57/147/2 58/148/2 
s 8
f 40/149/37 59/150/38 57/151/39 30/152/40 
s 1
f 40/153/1 42/154/1 60/155/1 59/156/1 
s 2
f 28/128/41 58/157/42 60/158/43 43/99/41 
s 1
f 46/103/22 61/159/44 62/160/45 47/104/23 
f 63/161/1 64/162/1 51/163/1 52/164/1 
s 4
f 51/113/25 64/165/46 61/166/46 46/131/28 
f 47/134/29 62/167/47 63/168/47 52/119/27 
s 1
f 65/169/48 66/170/49 67/171/50 68/172/51 
f 69/173/1 70/174/1 71/175/1 72/176/1 
s 4
f 58/177/52 57/178/53 73/179/53 74/180/54 
f 56/181/35 54/182/55 75/183/56 76/184/57 
f 77/185/58 78/186/59 79/187/60 80/188/61 
s 2
f 81/189/62 82/190/62 83/191/62 84/192/62 
s 4
f 85/193/63 86/194/64 87/195/65 88/196/66 
f 59/197/67 60/198/68 89/199/69 90/200/67 
f 91/201/70 92/202/71 93/203/72 94/204/73 
s 2
f 95/205/74 96/206/74 97/207/74 98/208/74 
s 4
f 99/209/75 100/210/76 101/211/77 102/212/78 
f 53/213/79 55/214/36 103/215/80 104/216/81 
s 1
f 78/217/82 62/160/45 81/218/82 
f 85/219/44 82/220/44 61/159/44 
f 92/221/1 64/162/1 95/222/1 
f 99/223/1 96/224/1 63/161/1 
s 4
f 86/194/64 58/157/52 74/225/54 87/195/65 
f 54/136/55 77/185/58 80/188/61 75/226/56 
s 8
f 78/227/83 81/189/83 84/192/83 79/228/83 
f 82/190/84 85/229/84 88/230/84 83/191/84 
s 4
f 60/158/68 91/201/70 94/204/73 89/231/69 
s 8
f 92/232/85 95/205/85 98/208/85 93/233/85 
f 96/206/86 99/234/86 102/235/86 97/207/86 
s 4
f 100/210/76 53/135/79 104/236/81 101/211/77 
s 2
f 57/178/87 56/181/87 76/184/87 73/179/87 
f 55/214/88 59/197/88 90/200/88 103/215/88 
s off
f 90/237/89 89/238/89 71/175/89 70/174/89 
f 89/238/90 94/239/90 105/240/90 71/175/90 
f 94/239/91 93/241/91 106/242/91 105/240/91 
f 93/241/92 98/243/92 107/244/92 106/242/92 
f 98/243/93 97/245/93 108/246/93 107/244/93 
f 97/245/94 102/247/94 109/248/94 108/246/94 
f 102/247/95 101/249/95 110/250/95 109/248/95 
f 101/249/96 104/251/96 72/176/96 110/250/96 
f 104/251/97 103/252/97 69/173/97 72/176/97 
f 103/252/98 90/237/98 70/174/98 69/173/98 
f 74/253/99 73/254/99 66/170/99 65/169/99 
f 73/254/100 76/255/100 67/171/100 66/170/100 
f 76/255/101 75/256/101 68/172/101 67/171/101 
f 75/256/102 80/257/102 111/258/102 68/172/102 
f 80/257/103 79/259/103 112/260/103 111/258/103 
f 79/259/104 84/261/104 113/262/104 112/260/104 
f 84/261/105 83/263/105 114/264/105 113/262/105 
f 83/263/106 88/265/106 115/266/106 114/264/106 
f 88/265/107 87/267/107 116/268/107 115/266/107 
f 87/267/108 74/253/108 65/169/108 116/268/108 
s 2
f 100/210/109 77/185/110 54/136/32 53/135/31 
s 8
f 55/214/111 56/181/112 57/178/39 59/197/38 
s 2
f 86/194/113 91/201/114 60/158/43 58/157/42 
s 4
f 78/186/59 77/185/58 100/210/76 99/209/75 
f 62/167/47 78/186/59 99/209/75 63/168/47 
s 1
f 96/224/1 95/222/1 64/162/1 63/161/1 
s 4
f 92/202/71 85/193/63 61/166/46 64/165/46 
f 91/201/70 86/194/64 85/193/63 92/202/71 
s 1
f 82/220/44 81/218/82 62/160/45 61/159/44 
f 112/260/115 113/262/116 114/264/117 115/266/118 
f 111/258/119 112/260/115 115/266/118 116/268/120 
f 68/172/51 111/258/119 116/268/120 65/169/48 
f 107/244/1 108/246/1 109/248/1 106/242/1 
f 106/242/1 109/248/1 110/250/1 105/240/1 
f 105/240/1 110/250/1 72/176/1 71/175/1 
s 2
f 21/31/8 16/115/26 35/66/15 22/32/9 
f 21/31/8 17/68/17 16/115/26 
f 13/17/5 48/109/5 15/60/5 14/18/5 
f 13/17/5 34/269/5 48/109/5 
s 4
f 1/270/12 32/100/12 23/40/12 2/39/12 
f 1/270/12 10/97/12 32/100/12 
s 2
f 4/271/3 24/86/3 9/10/3 1/9/3 
f 4/271/3 12/83/3 24/86/3 
s 4
f 3/272/4 31/69/4 11/13/4 4/12/4 
f 3/272/4 14/70/4 31/69/4 
s 1
f 38/138/1 39/273/1 55/139/1 
f 42/154/1 43/274/1 60/155/1 
# 108 polygons - 20 triangles

