# 3ds Max Wavefront OBJ Exporter v0.97b - (c)2007 guruware
# File Created: 24.01.2018 15:07:14

mtllib Grinder_Final.mtl

#
# object Grinder
#

v  -15.0000 0.0000 15.0000
v  -15.0000 0.0000 -15.0000
v  15.0000 0.0000 -15.0000
v  15.0000 0.0000 15.0000
v  12.9366 19.0367 12.9366
v  12.9366 19.0367 -12.9366
v  -12.9366 19.0367 -12.9366
v  -12.9366 19.0367 12.9366
v  15.0000 20.0000 15.0000
v  -15.0000 20.0000 15.0000
v  15.0000 20.0000 2.4880
v  -15.0000 20.0000 -15.0000
v  15.0000 20.0000 -15.0000
v  -15.0000 20.0000 -2.5154
v  13.2576 20.0000 13.2576
v  -13.2576 20.0000 13.2576
v  13.2576 20.0000 2.4880
v  -13.2576 20.0000 -13.2576
v  13.2576 20.0000 -13.2576
v  -13.2576 20.0000 -2.5154
v  15.0000 20.0000 -2.5154
v  13.2576 20.0000 -2.5154
v  -15.0000 40.0000 2.4880
v  -13.2576 40.0000 2.4880
v  -13.2576 40.0000 -2.5154
v  -15.0000 40.0000 -2.5154
v  15.0000 40.0000 -2.5154
v  13.2576 40.0000 -2.5154
v  13.2576 40.0000 2.4880
v  15.0000 40.0000 2.4880
v  -15.0000 20.0000 2.4880
v  -13.2576 20.0000 2.4880
v  -15.0000 39.0000 2.4880
v  -15.0000 39.0000 -2.5154
v  -13.2576 39.0000 2.4880
v  -13.2576 39.0000 -2.5154
v  13.2576 39.0000 -2.5154
v  15.0000 39.0000 -2.5154
v  13.2576 39.0000 2.4880
v  15.0000 39.0000 2.4880
v  5.3498 39.0000 2.4880
v  5.3498 39.0000 -2.5154
v  5.3498 40.0000 -2.5154
v  5.3498 40.0000 2.4880
v  -4.8244 39.0000 2.4880
v  -4.8244 39.0000 -2.5154
v  -3.0017 39.0000 -0.6927
v  -3.0017 39.0000 0.6654
v  -4.8244 40.0000 -2.5154
v  -4.8244 40.0000 2.4880
v  -3.0017 40.0000 0.6654
v  -3.0017 40.0000 -0.6927
v  1.7320 25.1298 2.3949
v  1.7320 25.1298 -2.4222
v  3.5584 25.1298 -0.5959
v  3.5584 25.1298 0.5685
v  -1.1790 39.0000 -2.5154
v  -1.1790 40.0000 -2.5154
v  1.7045 40.0000 -2.5154
v  1.7045 39.0000 -2.5154
v  -1.1790 40.0000 2.4880
v  -1.1790 39.0000 2.4880
v  1.7045 39.0000 2.4880
v  1.7045 40.0000 2.4880
v  0.7804 48.0627 -0.8298
v  0.7804 48.0627 0.8024
v  1.4167 48.0627 0.1661
v  1.4167 48.0627 -0.1935
v  2.0532 25.6563 -3.1205
v  -1.5278 25.6563 -3.1205
v  3.5271 39.0000 -0.6927
v  3.5271 39.0000 0.6654
v  4.3167 25.6563 0.8296
v  4.3167 25.6563 -0.8570
v  -1.5278 25.6563 3.0932
v  2.0532 25.6563 3.0932
v  -3.7913 25.6563 -0.8570
v  -3.7913 25.6563 0.8296
v  -0.6857 46.9924 -1.5088
v  1.2111 46.9924 -1.5088
v  -1.8514 46.9924 0.3157
v  -1.8514 46.9924 -0.3431
v  1.2111 46.9924 1.4815
v  -0.6857 46.9924 1.4815
v  3.5271 40.0000 0.6654
v  3.5271 40.0000 -0.6927
v  2.3768 46.9924 -0.3431
v  2.3768 46.9924 0.3157
v  -0.2550 48.0627 -0.8298
v  -0.8912 48.0627 -0.1935
v  -0.8912 48.0627 0.1661
v  -0.2550 48.0627 0.8024
v  -1.2066 25.1298 -2.4222
v  -1.2066 25.1298 2.3949
v  -3.0329 25.1298 0.5685
v  -3.0329 25.1298 -0.5959
# 96 vertices

vn 0.0000 -1.0000 -0.0000
vn 0.0000 1.0000 -0.0000
vn 0.0000 0.0000 1.0000
vn 1.0000 0.0000 -0.0000
vn 0.0000 0.0000 -1.0000
vn -1.0000 0.0000 -0.0000
vn 0.0000 0.3162 -0.9487
vn -0.9487 0.3162 -0.0000
vn -0.9770 0.2133 -0.0000
vn 0.0000 0.3162 0.9487
vn 0.9487 0.3162 -0.0000
vn 0.9770 0.2133 -0.0000
vn -0.0000 0.0000 1.0000
vn 0.0000 0.0153 -0.9999
vn 0.0000 0.0462 -0.9989
vn 0.0000 0.0462 0.9989
vn 0.0000 0.0153 0.9999
vn 0.0000 0.0453 -0.9990
vn 0.9983 0.0591 -0.0000
vn 0.0000 0.0453 0.9990
vn -0.9983 0.0591 -0.0000
vn 0.0000 0.1425 -0.9898
vn -0.9867 0.1623 -0.0000
vn 0.0000 0.1425 0.9898
vn 0.9867 0.1623 -0.0000
vn -0.7062 0.0505 -0.7062
vn 0.7062 0.0505 -0.7062
vn 0.7062 0.0505 0.7062
vn -0.7062 0.0505 0.7062
vn 0.6991 0.1500 -0.6991
vn -0.6991 0.1500 -0.6991
vn -0.6991 0.1500 0.6991
vn 0.6991 0.1500 0.6991
vn 0.0000 0.5357 -0.8444
vn -0.5703 0.5913 -0.5703
vn -0.7444 0.6678 -0.0000
vn -0.5703 0.5913 0.5703
vn 0.0000 0.5357 0.8444
vn 0.5703 0.5913 0.5703
vn 0.7444 0.6678 -0.0000
vn 0.5703 0.5913 -0.5703
vn 0.0000 -0.7985 -0.6020
vn 0.4170 -0.8076 -0.4170
vn 0.5703 -0.8214 -0.0000
vn 0.4170 -0.8076 0.4170
vn 0.0000 -0.7985 0.6020
vn -0.4170 -0.8076 0.4170
vn -0.5703 -0.8214 -0.0000
vn -0.4170 -0.8076 -0.4170
# 49 vertex normals

vt 0.7323 0.2694 0.0000
vt 0.7323 0.0059 0.0000
vt 0.9959 0.0059 0.0000
vt 0.9959 0.2694 0.0000
vt 0.2336 0.0051 0.0000
vt 0.2336 0.2324 0.0000
vt 0.0063 0.2324 0.0000
vt 0.0063 0.0051 0.0000
vt 0.2885 0.2596 0.0000
vt 0.5520 0.2596 0.0000
vt 0.5520 0.4353 0.0000
vt 0.2885 0.4353 0.0000
vt 0.0138 0.6357 0.0000
vt 0.1237 0.8114 0.0000
vt 0.0138 0.8114 0.0000
vt 0.2540 0.0718 0.0000
vt 0.5176 0.0718 0.0000
vt 0.5176 0.2475 0.0000
vt 0.2540 0.2475 0.0000
vt 0.0138 0.2607 0.0000
vt 0.1235 0.4364 0.0000
vt 0.0138 0.4364 0.0000
vt 0.1815 0.4495 0.0000
vt 0.4450 0.4495 0.0000
vt 0.4297 0.4648 0.0000
vt 0.1968 0.4648 0.0000
vt 0.4450 0.5594 0.0000
vt 0.4297 0.5594 0.0000
vt 0.4758 0.5821 0.0000
vt 0.2122 0.5821 0.0000
vt 0.2275 0.5668 0.0000
vt 0.4605 0.5668 0.0000
vt 0.2122 0.4724 0.0000
vt 0.2275 0.4724 0.0000
vt 0.5236 0.7017 0.0000
vt 0.2906 0.7017 0.0000
vt 0.2934 0.6932 0.0000
vt 0.5207 0.6932 0.0000
vt 0.8612 0.5613 0.0000
vt 0.7666 0.5613 0.0000
vt 0.8584 0.5528 0.0000
vt 0.5246 0.7234 0.0000
vt 0.2917 0.7234 0.0000
vt 0.2945 0.7150 0.0000
vt 0.5218 0.7150 0.0000
vt 0.6890 0.4569 0.0000
vt 0.5946 0.4569 0.0000
vt 0.6861 0.4484 0.0000
vt 0.4758 0.4724 0.0000
vt 0.4605 0.4724 0.0000
vt 0.1223 0.9440 0.0000
vt 0.1070 0.9440 0.0000
vt 0.1070 0.9000 0.0000
vt 0.1223 0.9000 0.0000
vt 0.0041 0.9482 0.0000
vt 0.0194 0.9482 0.0000
vt 0.0194 0.9922 0.0000
vt 0.0041 0.9922 0.0000
vt 0.1815 0.5594 0.0000
vt 0.1968 0.5594 0.0000
vt 0.1674 0.4364 0.0000
vt 0.1674 0.6033 0.0000
vt 0.1235 0.6033 0.0000
vt 0.2904 0.7411 0.0000
vt 0.3057 0.7411 0.0000
vt 0.3057 0.9080 0.0000
vt 0.2904 0.9080 0.0000
vt 0.5506 0.4569 0.0000
vt 0.5946 0.6238 0.0000
vt 0.5506 0.6238 0.0000
vt 0.8151 0.7383 0.0000
vt 0.8304 0.7383 0.0000
vt 0.8304 0.9052 0.0000
vt 0.8151 0.9052 0.0000
vt 0.5668 0.7383 0.0000
vt 0.5821 0.7383 0.0000
vt 0.5821 0.9052 0.0000
vt 0.5668 0.9052 0.0000
vt 0.7227 0.5613 0.0000
vt 0.7666 0.7282 0.0000
vt 0.7227 0.7282 0.0000
vt 0.5386 0.7411 0.0000
vt 0.5539 0.7411 0.0000
vt 0.5539 0.9080 0.0000
vt 0.5386 0.9080 0.0000
vt 0.1677 0.8114 0.0000
vt 0.1677 0.9784 0.0000
vt 0.1237 0.9784 0.0000
vt 0.1674 0.6121 0.0000
vt 0.1235 0.6121 0.0000
vt 0.3057 0.9168 0.0000
vt 0.2904 0.9168 0.0000
vt 0.8304 0.9140 0.0000
vt 0.8151 0.9140 0.0000
vt 0.5821 0.9140 0.0000
vt 0.5668 0.9140 0.0000
vt 0.5539 0.9168 0.0000
vt 0.5386 0.9168 0.0000
vt 0.1677 0.9871 0.0000
vt 0.1237 0.9871 0.0000
vt 0.6827 0.0074 0.0000
vt 0.6827 0.0769 0.0000
vt 0.6388 0.0769 0.0000
vt 0.6388 0.0074 0.0000
vt 0.6516 0.9052 0.0000
vt 0.6516 0.9140 0.0000
vt 0.4692 0.9168 0.0000
vt 0.4692 0.9080 0.0000
vt 0.0889 0.9482 0.0000
vt 0.0889 0.9922 0.0000
vt 0.7294 0.0386 0.0000
vt 0.6854 0.0386 0.0000
vt 0.7015 0.0226 0.0000
vt 0.7134 0.0226 0.0000
vt 0.7410 0.9140 0.0000
vt 0.7410 0.9052 0.0000
vt 0.3798 0.9080 0.0000
vt 0.3798 0.9168 0.0000
vt 0.0329 0.9000 0.0000
vt 0.0329 0.9440 0.0000
vt 0.0169 0.9280 0.0000
vt 0.0169 0.9161 0.0000
vt 0.4714 0.9861 0.0000
vt 0.5019 0.9567 0.0000
vt 0.5015 0.9794 0.0000
vt 0.4941 0.9865 0.0000
vt 0.7090 0.9052 0.0000
vt 0.7090 0.9140 0.0000
vt 0.6836 0.9140 0.0000
vt 0.6836 0.9052 0.0000
vt 0.4118 0.9168 0.0000
vt 0.4118 0.9080 0.0000
vt 0.4371 0.9080 0.0000
vt 0.4371 0.9168 0.0000
vt 0.7237 0.9859 0.0000
vt 0.7341 0.9760 0.0000
vt 0.7339 0.9839 0.0000
vt 0.7316 0.9861 0.0000
vt 0.6806 0.7880 0.0000
vt 0.7120 0.7880 0.0000
vt 0.7679 0.8905 0.0000
vt 0.7560 0.8911 0.0000
vt 0.7492 0.7738 0.0000
vt 0.7640 0.7732 0.0000
vt 0.4087 0.7908 0.0000
vt 0.4402 0.7908 0.0000
vt 0.3596 0.8787 0.0000
vt 0.3477 0.8782 0.0000
vt 0.3516 0.7608 0.0000
vt 0.3664 0.7615 0.0000
vt 0.7046 0.9754 0.0000
vt 0.6880 0.9754 0.0000
vt 0.6374 0.8156 0.0000
vt 0.6494 0.8171 0.0000
vt 0.6382 0.8784 0.0000
vt 0.6324 0.8776 0.0000
vt 0.4328 0.9783 0.0000
vt 0.4161 0.9783 0.0000
vt 0.4902 0.8013 0.0000
vt 0.5022 0.8028 0.0000
vt 0.4910 0.8641 0.0000
vt 0.4853 0.8633 0.0000
vt 0.7294 0.0066 0.0000
vt 0.6854 0.0066 0.0000
vt 0.0009 0.9000 0.0000
vt 0.0009 0.9440 0.0000
vt 0.6827 0.1089 0.0000
vt 0.6667 0.0929 0.0000
vt 0.1049 0.9762 0.0000
vt 0.1209 0.9922 0.0000
vt 0.6548 0.0929 0.0000
vt 0.6388 0.1089 0.0000
vt 0.1209 0.9482 0.0000
vt 0.1049 0.9642 0.0000
vt 0.3251 0.8782 0.0000
vt 0.3235 0.7608 0.0000
vt 0.7906 0.8905 0.0000
vt 0.7921 0.7732 0.0000
vt 0.7334 0.8932 0.0000
vt 0.7212 0.7764 0.0000
vt 0.3822 0.8808 0.0000
vt 0.3944 0.7640 0.0000
vt 0.5242 0.8085 0.0000
vt 0.5051 0.8680 0.0000
vt 0.6148 0.8155 0.0000
vt 0.6180 0.8777 0.0000
vt 0.6714 0.8228 0.0000
vt 0.6523 0.8823 0.0000
vt 0.4676 0.8012 0.0000
vt 0.4708 0.8634 0.0000
vt 0.7009 0.9848 0.0000
vt 0.6918 0.9848 0.0000
vt 0.6300 0.8876 0.0000
vt 0.6195 0.8880 0.0000
vt 0.6381 0.8887 0.0000
vt 0.6481 0.8919 0.0000
vt 0.4290 0.9877 0.0000
vt 0.4199 0.9877 0.0000
vt 0.4828 0.8733 0.0000
vt 0.4723 0.8737 0.0000
vt 0.4909 0.8744 0.0000
vt 0.5009 0.8776 0.0000
vt 0.4865 0.9318 0.0000
vt 0.5083 0.9545 0.0000
vt 0.4840 0.9381 0.0000
vt 0.5078 0.9826 0.0000
vt 0.4971 0.9929 0.0000
vt 0.4690 0.9924 0.0000
vt 0.4472 0.9697 0.0000
vt 0.4535 0.9675 0.0000
vt 0.4477 0.9416 0.0000
vt 0.4540 0.9448 0.0000
vt 0.4584 0.9313 0.0000
vt 0.4614 0.9377 0.0000
vt 0.7294 0.1127 0.0000
vt 0.6854 0.1127 0.0000
vt 0.7176 0.9714 0.0000
vt 0.7199 0.9693 0.0000
vt 0.7278 0.9694 0.0000
vt 0.7174 0.9793 0.0000
vt 0.4589 0.4484 0.0000
vt 0.4560 0.4569 0.0000
vt 0.6283 0.5613 0.0000
vt 0.6311 0.5528 0.0000
vt 0.2774 0.6357 0.0000
vt 0.2774 0.8114 0.0000
vt 0.2774 0.2607 0.0000
vt 0.2774 0.4364 0.0000
# 228 texture coords

g Grinder
usemtl Material__27
s 1
f 1/1/1 2/2/1 3/3/1 4/4/1 
f 5/5/2 6/6/2 7/7/2 8/8/2 
s 2
f 1/9/3 4/10/3 9/11/3 10/12/3 
s 4
f 4/13/4 11/14/4 9/15/4 
s 2
f 3/16/5 2/17/5 12/18/5 13/19/5 
s 4
f 2/20/6 14/21/6 12/22/6 
s 1
f 10/23/2 9/24/2 15/25/2 16/26/2 
f 11/27/2 17/28/2 15/25/2 9/24/2 
f 13/29/2 12/30/2 18/31/2 19/32/2 
f 14/33/2 20/34/2 18/31/2 12/30/2 
s 2
f 16/35/7 15/36/7 5/37/7 8/38/7 
s 4
f 15/39/8 17/40/9 5/41/8 
s 2
f 19/42/10 18/43/10 7/44/10 6/45/10 
s 4
f 18/46/11 20/47/12 7/48/11 
s 1
f 21/49/2 13/29/2 19/32/2 22/50/2 
f 23/51/2 24/52/2 25/53/2 26/54/2 
f 27/55/2 28/56/2 29/57/2 30/58/2 
f 31/59/2 10/23/2 16/26/2 32/60/2 
s 4
f 14/21/6 31/61/6 33/62/6 34/63/6 
s 2
f 31/64/3 32/65/3 35/66/3 33/67/3 
s 4
f 32/68/12 20/47/12 36/69/4 35/70/4 
s 2
f 20/71/5 14/72/5 34/73/5 36/74/5 
f 21/75/5 22/76/5 37/77/5 38/78/5 
s 4
f 22/79/9 17/40/9 39/80/6 37/81/6 
s 2
f 17/82/13 11/83/13 40/84/13 39/85/13 
s 4
f 11/14/4 21/86/4 38/87/4 40/88/4 
f 34/63/6 33/62/6 23/89/6 26/90/6 
s 2
f 33/67/3 35/66/3 24/91/3 23/92/3 
f 36/74/5 34/73/5 26/93/5 25/94/5 
f 38/78/5 37/77/5 28/95/5 27/96/5 
f 39/85/13 40/84/13 30/97/13 29/98/13 
s 4
f 40/88/4 38/87/4 27/99/4 30/100/4 
s 1
f 39/101/1 41/102/1 42/103/1 37/104/1 
s 2
f 37/77/5 42/105/5 43/106/5 28/95/5 
f 29/98/13 44/107/3 41/108/3 39/85/13 
s 1
f 28/56/2 43/109/2 44/110/2 29/57/2 
f 45/111/1 46/112/1 47/113/1 48/114/1 
s 2
f 36/74/5 25/94/5 49/115/5 46/116/5 
f 24/91/3 35/66/3 45/117/3 50/118/3 
s 1
f 49/119/2 50/120/2 51/121/2 52/122/2 
f 53/123/1 54/124/1 55/125/1 56/126/1 
s 2
f 57/127/14 58/128/15 59/129/15 60/130/14 
f 61/131/16 62/132/17 63/133/17 64/134/16 
s 1
f 65/135/2 66/136/2 67/137/2 68/138/2 
s 2
f 57/127/14 60/130/14 69/139/18 70/140/18 
f 71/141/19 72/142/19 73/143/19 74/144/19 
f 63/133/17 62/132/17 75/145/20 76/146/20 
f 48/147/21 47/148/21 77/149/21 78/150/21 
f 59/129/15 58/128/15 79/151/22 80/152/22 
f 52/153/23 51/154/23 81/155/23 82/156/23 
f 61/131/16 64/134/16 83/157/24 84/158/24 
f 85/159/25 86/160/25 87/161/25 88/162/25 
s 1
f 45/111/1 48/114/1 62/163/1 
f 46/112/1 57/164/1 47/113/1 
f 49/119/2 52/122/2 58/165/2 
f 50/120/2 61/166/2 51/121/2 
f 41/102/1 63/167/1 72/168/1 
f 44/110/2 85/169/2 64/170/2 
f 42/103/1 71/171/1 60/172/1 
f 43/109/2 59/173/2 86/174/2 
s 2
f 57/127/14 46/116/5 49/115/5 58/128/15 
f 61/131/16 50/118/3 45/117/3 62/132/17 
f 42/105/5 60/130/14 59/129/15 43/106/5 
f 44/107/3 64/134/16 63/133/17 41/108/3 
s 4
f 47/148/26 57/175/26 70/176/26 77/149/26 
f 60/177/27 71/141/27 74/144/27 69/178/27 
f 72/142/28 63/179/28 76/180/28 73/143/28 
f 62/181/29 48/147/29 78/150/29 75/182/29 
f 86/160/30 59/183/30 80/184/30 87/161/30 
f 58/185/31 52/153/31 82/156/31 79/186/31 
f 51/154/32 61/187/32 84/188/32 81/155/32 
f 64/189/33 85/159/33 88/162/33 83/190/33 
s off
f 80/152/34 79/151/34 89/191/34 65/192/34 
f 79/186/35 82/156/35 90/193/35 89/194/35 
f 82/156/36 81/155/36 91/195/36 90/193/36 
f 81/155/37 84/188/37 92/196/37 91/195/37 
f 84/158/38 83/157/38 66/197/38 92/198/38 
f 83/190/39 88/162/39 67/199/39 66/200/39 
f 88/162/40 87/161/40 68/201/40 67/199/40 
f 87/161/41 80/184/41 65/202/41 68/201/41 
f 70/203/42 69/204/42 54/124/42 93/205/42 
f 69/204/43 74/206/43 55/125/43 54/124/43 
f 74/206/44 73/207/44 56/126/44 55/125/44 
f 73/207/45 76/208/45 53/123/45 56/126/45 
f 76/208/46 75/209/46 94/210/46 53/123/46 
f 75/209/47 78/211/47 95/212/47 94/210/47 
f 78/211/48 77/213/48 96/214/48 95/212/48 
f 77/213/49 70/203/49 93/205/49 96/214/49 
s 1
f 86/174/2 85/169/2 44/110/2 43/109/2 
f 25/53/2 24/52/2 50/120/2 49/119/2 
f 72/168/1 71/171/1 42/103/1 41/102/1 
f 35/215/1 36/216/1 46/112/1 45/111/1 
f 90/217/2 91/218/2 92/219/2 89/220/2 
f 65/135/2 89/220/2 92/219/2 66/136/2 
f 95/212/1 96/214/1 93/205/1 94/210/1 
f 53/123/1 94/210/1 93/205/1 54/124/1 
s 4
f 32/68/12 8/221/11 7/48/11 20/47/12 
f 32/68/12 16/222/11 8/221/11 
f 22/79/9 19/223/8 6/224/8 
f 22/79/9 6/224/8 5/41/8 17/40/9 
f 3/225/4 21/86/4 11/14/4 4/13/4 
f 3/225/4 13/226/4 21/86/4 
f 1/227/6 31/61/6 14/21/6 2/20/6 
f 1/227/6 10/228/6 31/61/6 
# 88 polygons - 16 triangles

