# 3ds Max Wavefront OBJ Exporter v0.97b - (c)2007 guruware
# File Created: 21.03.2018 03:13:44

mtllib Star_light_texture.mtl

#
# object Star_Light
#

v  3.4959 -0.0000 1.9022
v  1.7479 -3.0275 1.9022
v  6.1110 -3.5282 1.7125
v  -1.7479 -3.0275 -0.1774
v  0.0000 -7.0564 -0.0000
v  0.0000 -7.0564 1.7125
v  -1.7479 -3.0275 1.9022
v  1.7479 -3.0275 -0.1774
v  6.1110 -3.5282 -0.0000
v  3.4959 0.0000 -0.1774
v  6.1110 3.5282 0.0000
v  6.1110 3.5282 1.7125
v  1.7479 3.0275 -0.1774
v  1.7479 3.0275 1.9022
v  -1.7479 3.0275 -0.1774
v  -6.1110 3.5282 0.0000
v  -6.1110 3.5282 1.7125
v  -1.7479 3.0275 1.9022
v  -3.4959 -0.0000 -0.1774
v  -3.4959 -0.0000 1.9022
v  -6.1110 -3.5282 -0.0000
v  -6.1110 -3.5282 1.7125
v  -0.0000 7.0564 1.7125
v  -0.0000 7.0564 0.0000
v  -0.6319 5.5998 0.6041
v  -2.8943 5.7708 0.6041
v  -2.8943 5.8650 0.7996
v  -0.5911 5.6940 0.7996
v  -0.7237 5.3883 0.5559
v  -2.8943 5.5593 0.5559
v  -0.7973 5.2187 0.6911
v  -2.8943 5.3897 0.6911
v  -2.8943 5.3897 0.9081
v  -0.7973 5.2187 0.9081
v  -2.8943 5.5593 1.0433
v  -0.7237 5.3883 1.0433
v  -2.8943 5.7708 0.9951
v  -0.6319 5.5998 0.9951
v  -5.3943 6.0022 0.6041
v  -5.3943 6.0964 0.7996
v  -5.3943 5.7907 0.5559
v  -5.3943 5.6211 0.6911
v  -5.3943 5.6211 0.9081
v  -5.3943 5.7907 1.0433
v  -5.3943 6.0022 0.9951
v  -7.8943 6.5710 0.6041
v  -7.8943 6.6652 0.7996
v  -7.8943 6.3595 0.5559
v  -7.8943 6.1899 0.6911
v  -7.8943 6.1899 0.9081
v  -7.8943 6.3595 1.0433
v  -7.8943 6.5710 0.9951
v  -10.3943 7.3458 0.6041
v  -10.3943 7.4399 0.7996
v  -10.3943 7.1343 0.5559
v  -10.3943 6.9647 0.6911
v  -10.3943 6.9647 0.9081
v  -10.3943 7.1343 1.0433
v  -10.3943 7.3458 0.9951
v  10.2070 7.4399 0.7996
v  10.2070 7.3458 0.6041
v  7.7070 6.5710 0.6041
v  7.7070 6.6652 0.7996
v  10.2070 7.1343 0.5559
v  7.7070 6.3595 0.5559
v  10.2070 6.9647 0.6911
v  7.7070 6.1899 0.6911
v  10.2070 6.9647 0.9081
v  7.7070 6.1899 0.9081
v  10.2070 7.1343 1.0433
v  7.7070 6.3595 1.0433
v  10.2070 7.3458 0.9951
v  7.7070 6.5710 0.9951
v  5.2070 6.2010 0.6041
v  5.2070 6.2951 0.7996
v  5.2070 5.9895 0.5559
v  5.2070 5.8199 0.6911
v  5.2070 5.8199 0.9081
v  5.2070 5.9895 1.0433
v  5.2070 6.2010 0.9951
v  2.7070 5.8408 0.6041
v  2.7070 5.9350 0.7996
v  2.7070 5.6293 0.5559
v  2.7070 5.4597 0.6911
v  2.7070 5.4597 0.9081
v  2.7070 5.6293 1.0433
v  2.7070 5.8408 0.9951
v  0.6195 5.6284 0.6045
v  0.5793 5.7212 0.7998
v  0.7842 5.2488 0.6916
v  0.7112 5.4172 0.5555
v  0.7112 5.4172 1.0437
v  0.7842 5.2488 0.9078
v  0.6195 5.6284 0.9947
# 94 vertices

vn 0.0214 -0.0000 0.9998
vn 0.0107 -0.0186 0.9998
vn 0.0407 -0.0235 0.9989
vn -0.9174 -0.3980 -0.0000
vn 0.9174 -0.3980 -0.0000
vn -0.1140 -0.9935 -0.0000
vn 0.8034 0.5955 0.0000
vn 0.8034 -0.5955 -0.0000
vn -0.1140 0.9935 0.0000
vn 0.1140 0.9935 0.0000
vn -0.8034 -0.5955 -0.0000
vn -0.8034 0.5955 0.0000
vn 0.1140 -0.9935 -0.0000
vn 0.0000 -0.0440 -0.9990
vn 0.0407 0.0235 0.9989
vn 0.0107 0.0186 0.9998
vn -0.0214 -0.0000 0.9998
vn -0.0107 -0.0186 0.9998
vn 0.0000 -0.0470 0.9989
vn -0.0407 -0.0235 0.9989
vn -0.0107 0.0186 0.9998
vn -0.0407 0.0235 0.9989
vn 0.0000 0.0470 0.9989
vn 0.0000 0.0157 -0.9999
vn 0.0000 0.0440 -0.9990
vn -0.0381 0.0220 -0.9990
vn -0.0381 -0.0220 -0.9990
vn 0.0000 0.0000 -1.0000
vn 0.0381 -0.0220 -0.9990
vn 0.0381 0.0220 -0.9990
vn 0.0502 0.6738 -0.7372
vn 0.0523 0.6206 -0.7824
vn 0.0839 0.9965 -0.0000
vn 0.0740 0.9973 -0.0000
vn -0.0109 -0.1331 -0.9910
vn -0.0197 -0.2237 -0.9745
vn -0.0706 -0.8778 -0.4738
vn -0.0781 -0.8983 -0.4325
vn -0.0781 -0.8983 0.4325
vn -0.0706 -0.8778 0.4738
vn -0.0197 -0.2237 0.9745
vn -0.0109 -0.1331 0.9910
vn 0.0523 0.6206 0.7824
vn 0.0502 0.6738 0.7372
vn 0.0963 0.6076 -0.7884
vn 0.1602 0.9871 -0.0000
vn -0.0407 -0.2383 -0.9703
vn -0.1408 -0.8944 -0.4244
vn -0.1408 -0.8944 0.4244
vn -0.0407 -0.2383 0.9703
vn 0.0963 0.6076 0.7884
vn 0.1615 0.6040 -0.7804
vn 0.2618 0.9651 0.0000
vn -0.0642 -0.2290 -0.9713
vn -0.2332 -0.8758 -0.4225
vn -0.2332 -0.8758 0.4225
vn -0.0642 -0.2290 0.9713
vn 0.1615 0.6040 0.7804
vn 0.2030 0.6552 -0.7277
vn 0.2960 0.9552 0.0000
vn -0.0437 -0.1411 -0.9890
vn -0.2639 -0.8516 -0.4528
vn -0.2639 -0.8516 0.4528
vn -0.0437 -0.1411 0.9890
vn 0.2030 0.6552 0.7277
vn -1.0000 0.0000 -0.0000
vn -0.9174 0.3980 0.0000
vn -0.9174 0.3980 -0.0000
vn -0.2960 0.9552 0.0000
vn -0.2030 0.6552 -0.7277
vn -0.1360 0.6011 -0.7875
vn -0.2266 0.9740 0.0000
vn 0.0437 -0.1411 -0.9890
vn 0.0592 -0.2397 -0.9690
vn 0.2639 -0.8516 -0.4528
vn 0.1986 -0.8852 -0.4208
vn 0.2639 -0.8516 0.4528
vn 0.1986 -0.8851 0.4208
vn 0.0437 -0.1411 0.9890
vn 0.0592 -0.2397 0.9690
vn -0.2030 0.6552 0.7277
vn -0.1360 0.6011 0.7875
vn -0.0904 0.6191 -0.7801
vn -0.1446 0.9895 0.0000
vn 0.0325 -0.2221 -0.9745
vn 0.1303 -0.8927 -0.4314
vn 0.1303 -0.8927 0.4314
vn 0.0325 -0.2221 0.9745
vn -0.0904 0.6191 0.7801
vn -0.0759 0.6170 -0.7833
vn -0.1226 0.9925 -0.0000
vn 0.0294 -0.2264 -0.9736
vn 0.1132 -0.8955 -0.4304
vn 0.1132 -0.8955 0.4304
vn 0.0295 -0.2264 0.9736
vn -0.0759 0.6170 0.7833
vn -0.0674 0.6687 -0.7405
vn -0.0999 0.9950 0.0003
vn 0.0952 -0.8776 -0.4699
vn 0.0154 -0.1397 -0.9901
vn 0.0154 -0.1393 0.9901
vn 0.0952 -0.8773 0.4704
vn -0.0674 0.6685 0.7407
vn 1.0000 0.0000 -0.0000
vn 0.9174 0.3980 -0.0000
vn 0.9174 0.3980 0.0000
# 106 vertex normals

vt 0.3580 0.7386 0.0000
vt 0.2940 0.6276 0.0000
vt 0.4538 0.6093 0.0000
vt 0.1612 0.2850 0.0000
vt 0.0136 0.2785 0.0000
vt 0.0136 0.2158 0.0000
vt 0.1612 0.2088 0.0000
vt 0.3185 0.2798 0.0000
vt 0.1708 0.2863 0.0000
vt 0.1708 0.2101 0.0000
vt 0.3185 0.2171 0.0000
vt 0.3341 0.1973 0.0000
vt 0.1743 0.1908 0.0000
vt 0.1743 0.1281 0.0000
vt 0.3341 0.1211 0.0000
vt 0.2719 0.4558 0.0000
vt 0.1427 0.4623 0.0000
vt 0.1427 0.3861 0.0000
vt 0.2719 0.3931 0.0000
vt 0.0134 0.4558 0.0000
vt 0.0134 0.3931 0.0000
vt 0.0053 0.1295 0.0000
vt 0.1652 0.1230 0.0000
vt 0.1652 0.1992 0.0000
vt 0.0053 0.1922 0.0000
vt 0.1712 0.5587 0.0000
vt 0.0113 0.5522 0.0000
vt 0.0113 0.4894 0.0000
vt 0.1712 0.4825 0.0000
vt 0.2757 0.3644 0.0000
vt 0.1464 0.3709 0.0000
vt 0.1464 0.2947 0.0000
vt 0.2757 0.3016 0.0000
vt 0.0172 0.3644 0.0000
vt 0.0172 0.3016 0.0000
vt 0.1707 0.0833 0.0000
vt 0.0109 0.0898 0.0000
vt 0.0109 0.0136 0.0000
vt 0.1707 0.0206 0.0000
vt 0.7603 0.6268 0.0000
vt 0.6323 0.6268 0.0000
vt 0.6963 0.4792 0.0000
vt 0.4538 0.8678 0.0000
vt 0.2940 0.8495 0.0000
vt 0.1019 0.7386 0.0000
vt 0.1659 0.6276 0.0000
vt 0.2299 0.4800 0.0000
vt 0.0060 0.6093 0.0000
vt 0.1659 0.8495 0.0000
vt 0.0060 0.8678 0.0000
vt 0.2299 0.9971 0.0000
vt 0.7603 0.8487 0.0000
vt 0.6963 0.9963 0.0000
vt 0.6323 0.8487 0.0000
vt 0.8244 0.7377 0.0000
vt 0.9202 0.8670 0.0000
vt 0.9202 0.6085 0.0000
vt 0.5682 0.7377 0.0000
vt 0.4724 0.6085 0.0000
vt 0.4724 0.8670 0.0000
vt 0.6685 0.4278 0.0000
vt 0.5859 0.4313 0.0000
vt 0.5856 0.4241 0.0000
vt 0.6700 0.4241 0.0000
vt 0.6664 0.4325 0.0000
vt 0.5874 0.4389 0.0000
vt 0.6647 0.4390 0.0000
vt 0.5883 0.4450 0.0000
vt 0.5882 0.4032 0.0000
vt 0.5880 0.3953 0.0000
vt 0.6651 0.3953 0.0000
vt 0.6649 0.4062 0.0000
vt 0.5874 0.4093 0.0000
vt 0.6664 0.4157 0.0000
vt 0.5859 0.4169 0.0000
vt 0.6685 0.4204 0.0000
vt 0.4944 0.4343 0.0000
vt 0.4940 0.4241 0.0000
vt 0.4962 0.4449 0.0000
vt 0.4971 0.4510 0.0000
vt 0.4966 0.4002 0.0000
vt 0.4962 0.3953 0.0000
vt 0.4962 0.4033 0.0000
vt 0.4944 0.4139 0.0000
vt 0.4021 0.4313 0.0000
vt 0.4024 0.4241 0.0000
vt 0.4030 0.4389 0.0000
vt 0.4040 0.4450 0.0000
vt 0.4041 0.4032 0.0000
vt 0.4043 0.3953 0.0000
vt 0.4030 0.4093 0.0000
vt 0.4021 0.4169 0.0000
vt 0.3091 0.4245 0.0000
vt 0.3108 0.4241 0.0000
vt 0.3087 0.4254 0.0000
vt 0.3096 0.4315 0.0000
vt 0.3110 0.4100 0.0000
vt 0.3124 0.3953 0.0000
vt 0.3087 0.4228 0.0000
vt 0.3091 0.4237 0.0000
vt 0.9501 0.9631 0.0000
vt 0.9535 0.9559 0.0000
vt 0.9535 0.9702 0.0000
vt 0.3952 0.5428 0.0000
vt 0.4486 0.5649 0.0000
vt 0.3010 0.5714 0.0000
vt 0.3875 0.5446 0.0000
vt 0.3987 0.5356 0.0000
vt 0.4486 0.5022 0.0000
vt 0.3812 0.5396 0.0000
vt 0.3875 0.5267 0.0000
vt 0.3812 0.5317 0.0000
vt 0.3010 0.4952 0.0000
vt 0.3952 0.5285 0.0000
vt 0.6684 0.3447 0.0000
vt 0.6700 0.3445 0.0000
vt 0.5770 0.3518 0.0000
vt 0.5768 0.3447 0.0000
vt 0.6704 0.3447 0.0000
vt 0.5762 0.3595 0.0000
vt 0.6682 0.3582 0.0000
vt 0.5751 0.3656 0.0000
vt 0.6669 0.3736 0.0000
vt 0.5750 0.3736 0.0000
vt 0.6695 0.3385 0.0000
vt 0.5762 0.3299 0.0000
vt 0.5753 0.3238 0.0000
vt 0.6700 0.3449 0.0000
vt 0.5770 0.3375 0.0000
vt 0.4852 0.3519 0.0000
vt 0.4852 0.3447 0.0000
vt 0.4841 0.3596 0.0000
vt 0.4832 0.3657 0.0000
vt 0.4832 0.3736 0.0000
vt 0.4841 0.3297 0.0000
vt 0.4832 0.3236 0.0000
vt 0.4852 0.3374 0.0000
vt 0.3934 0.3518 0.0000
vt 0.3936 0.3447 0.0000
vt 0.3920 0.3595 0.0000
vt 0.3912 0.3656 0.0000
vt 0.3913 0.3736 0.0000
vt 0.3920 0.3299 0.0000
vt 0.3911 0.3238 0.0000
vt 0.3934 0.3375 0.0000
vt 0.3169 0.3502 0.0000
vt 0.3156 0.3447 0.0000
vt 0.3207 0.3643 0.0000
vt 0.3189 0.3566 0.0000
vt 0.3189 0.3327 0.0000
vt 0.3206 0.3263 0.0000
vt 0.3169 0.3392 0.0000
vt 0.9138 0.9681 0.0000
vt 0.9138 0.9538 0.0000
vt 0.9172 0.9609 0.0000
vt 0.3207 0.3735 0.0000
vt 0.2426 0.0709 0.0000
vt 0.2503 0.0726 0.0000
vt 0.3379 0.0995 0.0000
vt 0.1903 0.0930 0.0000
vt 0.2392 0.0637 0.0000
vt 0.2565 0.0677 0.0000
vt 0.2565 0.0597 0.0000
vt 0.2503 0.0548 0.0000
vt 0.3379 0.0233 0.0000
vt 0.2426 0.0566 0.0000
vt 0.1903 0.0303 0.0000
vt 0.9060 0.9699 0.0000
vt 0.8998 0.9649 0.0000
vt 0.8998 0.9570 0.0000
vt 0.9060 0.9520 0.0000
vt 0.9675 0.9591 0.0000
vt 0.9675 0.9670 0.0000
vt 0.9613 0.9720 0.0000
vt 0.9613 0.9541 0.0000
# 175 texture coords

g Star_Light
usemtl Material__0
s 1
f 1/1/1 2/2/2 3/3/3 
s 2
f 4/4/4 5/5/4 6/6/4 7/7/4 
s 4
f 5/8/5 8/9/5 2/10/5 6/11/5 
s 2
f 8/12/6 9/13/6 3/14/6 2/15/6 
s off
f 9/16/7 10/17/7 1/18/7 3/19/7 
f 10/17/8 11/20/8 12/21/8 1/18/8 
s 4
f 11/22/9 13/23/9 14/24/9 12/25/9 
s 2
f 15/26/10 16/27/10 17/28/10 18/29/10 
s off
f 16/30/11 19/31/11 20/32/11 17/33/11 
f 19/31/12 21/34/12 22/35/12 20/32/12 
s 4
f 21/36/13 4/37/13 7/38/13 22/39/13 
s 1
f 4/40/14 8/41/14 5/42/14 
f 1/1/1 12/43/15 14/44/16 
f 20/45/17 7/46/18 2/2/2 1/1/1 
f 7/46/18 6/47/19 2/2/2 
f 20/45/17 22/48/20 7/46/18 
f 18/49/21 17/50/22 20/45/17 
f 14/44/16 23/51/23 18/49/21 
f 15/52/24 24/53/25 13/54/24 
s off
f 19/55/26 16/56/26 15/52/26 
f 4/40/27 21/57/27 19/55/27 
f 19/55/28 10/58/28 8/41/28 4/40/28 
f 10/58/29 9/59/29 8/41/29 
f 13/54/30 11/60/30 10/58/30 
s 1
f 14/44/16 18/49/21 20/45/17 1/1/1 
f 15/52/24 13/54/24 10/58/28 19/55/28 
s 8
f 25/61/31 26/62/32 27/63/33 28/64/34 
f 29/65/35 30/66/36 26/62/32 25/61/31 
f 31/67/37 32/68/38 30/66/36 29/65/35 
f 33/69/39 32/70/38 31/71/37 34/72/40 
f 35/73/41 33/69/39 34/72/40 36/74/42 
f 37/75/43 35/73/41 36/74/42 38/76/44 
f 27/63/33 26/62/32 39/77/45 40/78/46 
f 26/62/32 30/66/36 41/79/47 39/77/45 
f 30/66/36 32/68/38 42/80/48 41/79/47 
f 32/70/38 33/69/39 43/81/49 42/82/48 
f 33/69/39 35/73/41 44/83/50 43/81/49 
f 35/73/41 37/75/43 45/84/51 44/83/50 
f 37/75/43 27/63/33 40/78/46 45/84/51 
f 40/78/46 39/77/45 46/85/52 47/86/53 
f 39/77/45 41/79/47 48/87/54 46/85/52 
f 41/79/47 42/80/48 49/88/55 48/87/54 
f 42/82/48 43/81/49 50/89/56 49/90/55 
f 43/81/49 44/83/50 51/91/57 50/89/56 
f 44/83/50 45/84/51 52/92/58 51/91/57 
f 45/84/51 40/78/46 47/86/53 52/92/58 
f 47/86/53 46/85/52 53/93/59 54/94/60 
f 46/85/52 48/87/54 55/95/61 53/93/59 
f 48/87/54 49/88/55 56/96/62 55/95/61 
f 49/90/55 50/89/56 57/97/63 56/98/62 
f 50/89/56 51/91/57 58/99/64 57/97/63 
f 51/91/57 52/92/58 59/100/65 58/99/64 
f 52/92/58 47/86/53 54/94/60 59/100/65 
s 1
f 54/101/66 53/102/66 59/103/66 
s 8
f 27/63/33 37/75/43 38/76/44 28/64/34 
s off
f 25/104/67 24/105/67 15/106/67 29/107/67 
f 25/104/68 28/108/68 23/109/68 24/105/68 
f 31/110/68 29/107/68 15/106/68 
f 36/111/67 34/112/67 18/113/67 
f 38/114/68 36/111/68 18/113/68 23/109/68 
f 28/108/67 38/114/67 23/109/67 
f 34/112/68 31/110/68 15/106/68 18/113/68 
s 8
f 60/115/69 61/116/70 62/117/71 63/118/72 
f 61/116/70 64/119/73 65/120/74 62/117/71 
f 64/119/73 66/121/75 67/122/76 65/120/74 
f 66/121/75 68/123/77 69/124/78 67/122/76 
f 68/125/77 70/119/79 71/126/80 69/127/78 
f 70/119/79 72/128/81 73/129/82 71/126/80 
f 72/128/81 60/115/69 63/118/72 73/129/82 
f 63/118/72 62/117/71 74/130/83 75/131/84 
f 62/117/71 65/120/74 76/132/85 74/130/83 
f 65/120/74 67/122/76 77/133/86 76/132/85 
f 67/122/76 69/124/78 78/134/87 77/133/86 
f 69/127/78 71/126/80 79/135/88 78/136/87 
f 71/126/80 73/129/82 80/137/89 79/135/88 
f 73/129/82 63/118/72 75/131/84 80/137/89 
f 75/131/84 74/130/83 81/138/90 82/139/91 
f 74/130/83 76/132/85 83/140/92 81/138/90 
f 76/132/85 77/133/86 84/141/93 83/140/92 
f 77/133/86 78/134/87 85/142/94 84/141/93 
f 78/136/87 79/135/88 86/143/95 85/144/94 
f 79/135/88 80/137/89 87/145/96 86/143/95 
f 80/137/89 75/131/84 82/139/91 87/145/96 
f 82/139/91 81/138/90 88/146/97 89/147/98 
f 83/140/92 84/141/93 90/148/99 91/149/100 
f 86/143/95 92/150/101 93/151/102 85/144/94 
f 82/139/91 89/147/98 94/152/103 87/145/96 
s 1
f 72/153/104 61/154/104 60/155/104 
s 8
f 81/138/90 83/140/92 91/149/100 88/146/97 
f 84/141/93 85/142/94 93/156/102 90/148/99 
f 92/150/101 86/143/95 87/145/96 94/152/103 
s off
f 88/157/105 91/158/105 13/159/105 24/160/105 
f 89/161/106 88/157/106 24/160/106 
f 91/158/106 90/162/106 13/159/106 
f 93/163/105 92/164/105 14/165/105 
f 92/164/106 94/166/106 89/161/106 23/167/106 
f 23/167/106 14/165/106 92/164/106 
f 90/162/105 93/163/105 14/165/105 13/159/105 
s 1
f 72/153/104 70/168/104 68/169/104 
f 66/170/104 64/171/104 61/154/104 
f 68/169/104 66/170/104 61/154/104 72/153/104 
f 56/172/66 57/173/66 59/103/66 53/102/66 
f 57/173/66 58/174/66 59/103/66 
f 53/102/66 55/175/66 56/172/66 
s off
f 89/161/106 24/160/106 23/167/106 
# 79 polygons - 26 triangles

