# 3ds Max Wavefront OBJ Exporter v0.97b - (c)2007 guruware
# File Created: 06.04.2018 14:35:51

mtllib rotator_bottom.mtl

#
# object conveyor
#

v  -14.9516 -0.3094 15.0000
v  -14.9516 -0.3094 -15.0000
v  15.0484 -0.3094 -15.0000
v  15.0484 -0.3094 15.0000
v  -12.9516 7.3599 14.0000
v  -12.9516 1.6906 14.0000
v  13.0484 1.6906 14.0000
v  13.0484 7.3599 14.0000
v  14.0484 7.3599 -13.0000
v  14.0484 7.3599 13.0000
v  14.0484 1.6906 13.0000
v  14.0484 1.6906 -13.0000
v  13.0484 7.3599 -14.0000
v  13.0484 1.6906 -14.0000
v  -12.9516 1.6906 -14.0000
v  -12.9516 7.3599 -14.0000
v  -13.9516 7.3599 -13.0000
v  -13.9516 1.6906 -13.0000
v  -13.9516 1.6906 13.0000
v  -13.9516 7.3599 13.0000
v  15.0484 1.6906 -13.0000
v  15.0484 1.6906 13.0000
v  15.0484 7.3599 -15.0000
v  15.0484 7.3599 -13.0000
v  -14.9516 1.6906 13.0000
v  -14.9516 1.6906 -13.0000
v  -14.9516 7.3599 15.0000
v  -14.9516 7.3599 13.0000
v  13.0484 1.6906 15.0000
v  -12.9516 1.6906 15.0000
v  15.0484 7.3599 15.0000
v  13.0484 7.3599 15.0000
v  -12.9516 1.6906 -15.0000
v  13.0484 1.6906 -15.0000
v  -14.9516 7.3599 -15.0000
v  -12.9516 7.3599 -15.0000
v  -14.9516 7.3599 -13.0000
v  -12.9516 7.3599 15.0000
v  13.0484 7.3599 -15.0000
v  -14.8738 12.0213 15.0000
v  14.6405 12.0213 15.0000
v  14.6405 12.0213 -15.0000
v  -14.8738 12.0213 -15.0000
v  15.0484 7.3599 13.0000
# 44 vertices

vn 0.0000 -1.0000 -0.0000
vn 0.0000 0.0000 1.0000
vn 1.0000 0.0000 -0.0000
vn 0.0000 0.0000 -1.0000
vn -1.0000 0.0000 -0.0000
vn -0.9999 0.0152 -0.0000
vn 0.9968 0.0796 0.0000
vn 0.9968 0.0796 -0.0000
vn 0.0000 1.0000 -0.0000
vn 0.0000 -1.0000 0.0000
# 10 vertex normals

vt 0.9870 0.2704 0.0000
vt 0.7060 0.2704 0.0000
vt 0.7060 0.0139 0.0000
vt 0.9870 0.0139 0.0000
vt 0.5616 0.8647 0.0000
vt 0.5616 0.8116 0.0000
vt 0.7839 0.8116 0.0000
vt 0.7839 0.8647 0.0000
vt 0.7964 0.9940 0.0000
vt 0.5528 0.9940 0.0000
vt 0.5528 0.9409 0.0000
vt 0.7964 0.9409 0.0000
vt 0.5570 0.9269 0.0000
vt 0.5570 0.8738 0.0000
vt 0.7793 0.8738 0.0000
vt 0.7793 0.9269 0.0000
vt 0.5585 0.7964 0.0000
vt 0.5585 0.7433 0.0000
vt 0.8021 0.7433 0.0000
vt 0.8021 0.7964 0.0000
vt 0.2685 0.7675 0.0000
vt 0.0249 0.7675 0.0000
vt 0.0062 0.7488 0.0000
vt 0.2872 0.7488 0.0000
vt 0.2872 0.8206 0.0000
vt 0.2685 0.8206 0.0000
vt 0.2657 0.8954 0.0000
vt 0.0221 0.8954 0.0000
vt 0.0034 0.8766 0.0000
vt 0.2844 0.8766 0.0000
vt 0.2844 0.9485 0.0000
vt 0.2657 0.9485 0.0000
vt 0.5238 0.8954 0.0000
vt 0.3015 0.8954 0.0000
vt 0.5409 0.8766 0.0000
vt 0.5409 0.9485 0.0000
vt 0.5238 0.9485 0.0000
vt 0.5266 0.7675 0.0000
vt 0.3043 0.7675 0.0000
vt 0.5437 0.7488 0.0000
vt 0.5437 0.8206 0.0000
vt 0.5266 0.8206 0.0000
vt 0.0221 0.9485 0.0000
vt 0.0034 0.9485 0.0000
vt 0.3015 0.9485 0.0000
vt 0.3043 0.8206 0.0000
vt 0.2848 0.9922 0.0000
vt 0.5374 0.9922 0.0000
vt 0.2890 0.8643 0.0000
vt 0.5430 0.8643 0.0000
vt 0.0034 0.9922 0.0000
vt 0.0062 0.8643 0.0000
vt 0.0249 0.8206 0.0000
vt 0.0062 0.8206 0.0000
vt 0.9871 0.7244 0.0000
vt 0.7436 0.7244 0.0000
vt 0.7436 0.7159 0.0000
vt 0.9871 0.7159 0.0000
vt 0.9870 0.9666 0.0000
vt 0.9339 0.9666 0.0000
vt 0.9339 0.9580 0.0000
vt 0.9870 0.9580 0.0000
vt 0.9793 0.6999 0.0000
vt 0.7357 0.6999 0.0000
vt 0.7357 0.6914 0.0000
vt 0.9793 0.6914 0.0000
vt 0.8667 0.9267 0.0000
vt 0.9198 0.9267 0.0000
vt 0.9198 0.9353 0.0000
vt 0.8667 0.9353 0.0000
vt 0.7467 0.6450 0.0000
vt 0.9903 0.6450 0.0000
vt 0.9903 0.6536 0.0000
vt 0.7467 0.6536 0.0000
vt 0.9870 0.9828 0.0000
vt 0.9339 0.9828 0.0000
vt 0.9339 0.9743 0.0000
vt 0.9870 0.9743 0.0000
vt 0.7476 0.6261 0.0000
vt 0.9912 0.6261 0.0000
vt 0.9912 0.6346 0.0000
vt 0.7476 0.6346 0.0000
vt 0.8603 0.9743 0.0000
vt 0.9134 0.9743 0.0000
vt 0.9134 0.9828 0.0000
vt 0.8603 0.9828 0.0000
vt 0.7476 0.6653 0.0000
vt 0.9699 0.6653 0.0000
vt 0.9699 0.6746 0.0000
vt 0.7476 0.6746 0.0000
vt 0.9199 0.9161 0.0000
vt 0.8668 0.9161 0.0000
vt 0.8668 0.9067 0.0000
vt 0.9199 0.9067 0.0000
vt 0.9847 0.6140 0.0000
vt 0.7624 0.6140 0.0000
vt 0.7624 0.6046 0.0000
vt 0.9847 0.6046 0.0000
vt 0.8604 0.9489 0.0000
vt 0.9135 0.9489 0.0000
vt 0.9135 0.9582 0.0000
vt 0.8604 0.9582 0.0000
vt 0.9894 0.5599 0.0000
vt 0.7672 0.5599 0.0000
vt 0.7672 0.5505 0.0000
vt 0.9894 0.5505 0.0000
vt 0.9898 0.9277 0.0000
vt 0.9367 0.9277 0.0000
vt 0.9367 0.9183 0.0000
vt 0.9898 0.9183 0.0000
vt 0.7678 0.5777 0.0000
vt 0.9901 0.5777 0.0000
vt 0.9901 0.5870 0.0000
vt 0.7678 0.5870 0.0000
vt 0.9367 0.9353 0.0000
vt 0.9898 0.9353 0.0000
vt 0.9898 0.9447 0.0000
vt 0.9367 0.9447 0.0000
vt 0.7060 0.5394 0.0000
vt 0.7060 0.2871 0.0000
vt 0.9870 0.2871 0.0000
vt 0.9870 0.5394 0.0000
# 122 texture coords

g conveyor
usemtl 02___Default
s off
f 1/1/1 2/2/1 3/3/1 4/4/1 
f 5/5/2 6/6/2 7/7/2 8/8/2 
f 9/9/3 10/10/3 11/11/3 12/12/3 
f 13/13/4 14/14/4 15/15/4 16/16/4 
f 17/17/5 18/18/5 19/19/5 20/20/5 
f 21/21/3 22/22/3 4/23/3 3/24/3 
f 21/21/3 3/24/3 23/25/3 24/26/3 
f 25/27/5 26/28/5 2/29/5 1/30/5 
f 25/27/5 1/30/5 27/31/5 28/32/5 
f 29/33/2 30/34/2 1/30/2 4/35/2 
f 29/33/2 4/35/2 31/36/2 32/37/2 
f 33/38/4 34/39/4 3/24/4 2/40/4 
f 33/38/4 2/40/4 35/41/4 36/42/4 
f 26/28/5 37/43/5 35/44/5 2/29/5 
f 30/34/2 38/45/2 27/31/2 1/30/2 
f 34/39/4 39/46/4 23/25/4 3/24/4 
f 40/47/2 38/45/2 32/37/2 41/48/2 
f 42/49/4 39/46/4 36/42/4 43/50/4 
f 43/51/5 37/43/5 28/32/5 40/47/6 
f 23/25/7 42/49/7 24/26/7 
f 27/31/6 40/47/6 28/32/6 
f 35/44/6 37/43/6 43/51/6 
f 31/36/2 41/48/2 32/37/2 
f 27/31/2 38/45/2 40/47/2 
f 35/41/4 43/50/4 36/42/4 
f 23/25/4 39/46/4 42/49/4 
f 41/52/3 44/53/3 24/26/3 42/49/8 
f 22/22/3 44/53/3 31/54/3 4/23/3 
f 31/54/8 44/53/8 41/52/8 
f 12/55/9 11/56/9 22/57/9 21/58/9 
f 9/59/2 12/60/2 21/61/2 24/62/2 
f 10/63/10 9/64/10 24/65/10 44/66/10 
f 11/67/4 10/68/4 44/69/4 22/70/4 
f 19/71/9 18/72/9 26/73/9 25/74/9 
f 20/75/4 19/76/4 25/77/4 28/78/4 
f 17/79/1 20/80/1 28/81/1 37/82/1 
f 18/83/2 17/84/2 37/85/2 26/86/2 
f 7/87/9 6/88/9 30/89/9 29/90/9 
f 8/91/5 7/92/5 29/93/5 32/94/5 
f 5/95/1 8/96/1 32/97/1 38/98/1 
f 6/99/3 5/100/3 38/101/3 30/102/3 
f 15/103/9 14/104/9 34/105/9 33/106/9 
f 16/107/3 15/108/3 33/109/3 36/110/3 
f 13/111/1 16/112/1 36/113/1 39/114/1 
f 14/115/5 13/116/5 39/117/5 34/118/5 
f 40/119/9 41/120/9 42/121/9 43/122/9 
# 38 polygons - 8 triangles

