# 3ds Max Wavefront OBJ Exporter v0.97b - (c)2007 guruware
# File Created: 24.01.2018 15:09:40

mtllib Oven_Final.mtl

#
# object Brewer
#

v  -15.0000 0.0000 15.0000
v  -15.0000 0.0000 -15.0000
v  15.0000 0.0000 -15.0000
v  15.0000 0.0000 15.0000
v  15.0000 20.0000 -15.0000
v  15.0000 20.0000 15.0000
v  13.6348 30.0000 -13.6348
v  13.6348 30.0000 13.6348
v  -15.0000 20.0000 15.0000
v  -15.0000 20.0000 -15.0000
v  -13.6348 30.0000 13.6348
v  -13.6348 30.0000 -13.6348
v  12.8972 0.8995 15.0000
v  -12.8972 0.8995 15.0000
v  12.8972 19.1553 15.0000
v  -12.8972 19.1553 15.0000
v  -12.8972 0.8995 -15.0000
v  12.8972 0.8995 -15.0000
v  -12.8972 19.1553 -15.0000
v  12.8972 19.1553 -15.0000
v  9.8800 40.0000 9.8800
v  -9.8800 40.0000 9.8800
v  -10.3790 31.3537 13.6348
v  10.3790 31.3537 13.6348
v  12.8972 20.5957 15.0000
v  -12.8972 20.5957 15.0000
v  -9.8800 40.0000 -9.8800
v  9.8800 40.0000 -9.8800
v  10.3790 31.3537 -13.6348
v  -10.3790 31.3537 -13.6348
v  -12.8972 20.5957 -15.0000
v  12.8972 20.5957 -15.0000
v  6.3221 40.0000 6.3221
v  -6.3221 40.0000 6.3221
v  6.3221 40.0000 -6.3221
v  -6.3221 40.0000 -6.3221
v  -6.8211 31.3537 10.0769
v  6.8211 31.3537 10.0769
v  -6.8211 31.3537 -10.0769
v  6.8211 31.3537 -10.0769
v  4.9114 0.8995 -8.0453
v  4.9114 0.8995 11.9547
v  3.5566 8.5057 -8.0453
v  3.5566 8.5057 11.9547
v  3.5372 6.2780 11.9547
v  3.5372 6.2780 -8.0453
v  1.9473 10.1434 -8.0453
v  1.9473 10.1434 11.9547
v  -0.3488 10.1635 -8.0453
v  -0.3488 10.1635 11.9547
v  -1.9865 8.5541 -8.0453
v  -1.9865 8.5541 11.9547
v  -2.0058 6.3352 -8.0453
v  -2.0058 6.3352 11.9547
v  0.7349 4.6105 11.9547
v  0.8470 4.6095 11.9547
v  0.7349 4.6105 -8.0453
v  -3.1698 6.3453 -8.0453
v  -3.1698 6.3453 11.9547
v  -4.8075 4.7360 -8.0453
v  -4.8075 4.7360 11.9547
v  -4.8275 2.4400 -8.0453
v  -4.8275 2.4400 11.9547
v  -3.3136 0.8995 -8.0453
v  -3.3136 0.8995 11.9547
v  0.7156 2.3916 -8.0453
v  0.7156 2.3916 11.9547
v  -0.8029 0.8995 11.9547
v  -0.8029 0.8995 -8.0453
v  6.3706 2.3334 -8.0453
v  6.3906 4.6294 -8.0453
v  6.3906 4.6294 11.9547
v  6.3706 2.3334 11.9547
v  4.7813 6.2671 -8.0453
v  4.7813 6.2671 11.9547
v  2.2842 0.8995 -8.0453
v  2.2842 0.8995 11.9547
v  0.8275 2.3818 11.9547
v  0.8275 2.3818 -8.0453
v  0.8470 4.6095 -8.0453
# 80 vertices

vn 0.0000 -1.0000 -0.0000
vn 1.0000 0.0000 -0.0000
vn 0.9908 0.1353 -0.0000
vn -1.0000 0.0000 -0.0000
vn -0.9979 0.0648 -0.0000
vn -0.9738 0.2274 -0.0000
vn 0.0000 0.0000 1.0000
vn -0.0165 0.0528 0.9985
vn 0.0000 0.0000 -1.0000
vn -0.0165 0.0528 -0.9985
vn -0.0000 0.3983 0.9172
vn -0.0253 0.3994 0.9164
vn -0.0870 0.3477 0.9336
vn -0.0917 0.2206 0.9711
vn -0.0160 0.0566 0.9983
vn 0.0508 0.1396 0.9889
vn -0.0253 0.3994 -0.9164
vn 0.0000 0.3983 -0.9172
vn -0.0000 0.3983 -0.9172
vn -0.0870 0.3477 -0.9336
vn 0.1667 0.4008 -0.9009
vn -0.0160 0.0566 -0.9983
vn -0.0917 0.2206 -0.9711
vn 0.0000 1.0000 -0.0000
vn 0.9737 -0.2279 -0.0000
vn -0.9737 -0.2279 -0.0000
vn 0.1667 0.4008 0.9009
vn 0.0508 0.1396 -0.9889
vn 0.0000 -0.3983 0.9172
vn -0.9983 -0.0576 -0.0000
vn 0.9983 -0.0576 -0.0000
vn 0.0000 -0.3983 -0.9172
vn -0.9362 0.3515 -0.0000
vn 0.9362 0.3515 -0.0000
vn 0.9272 0.3746 0.0000
vn 0.9272 0.3746 -0.0000
vn 1.0000 -0.0087 0.0000
vn 0.3907 0.9205 0.0000
vn 0.3907 0.9205 -0.0000
vn -0.3746 0.9272 0.0000
vn -0.9205 0.3907 0.0000
vn -1.0000 0.0087 0.0000
vn -0.0000 0.0000 1.0000
vn 0.0000 -0.0000 -1.0000
vn -0.0000 -0.0000 -1.0000
vn -0.3746 0.9272 -0.0000
vn 0.0087 1.0000 0.0000
vn -0.9205 0.3907 -0.0000
vn -0.9272 -0.3746 -0.0000
vn -0.7133 -0.7009 -0.0000
vn 0.7009 -0.7133 -0.0000
vn 0.9205 -0.3907 -0.0000
vn 0.0087 1.0000 -0.0000
vn -0.7133 -0.7009 0.0000
vn 0.7009 -0.7133 0.0000
vn -0.0874 -0.9962 -0.0000
vn 0.0000 -0.0000 1.0000
vn -0.0000 -0.0000 1.0000
# 58 vertex normals

vt 0.7714 0.4259 0.0000
vt 0.7714 0.2033 0.0000
vt 0.9940 0.2033 0.0000
vt 0.9940 0.4259 0.0000
vt 0.2415 0.3895 0.0000
vt 0.4641 0.3895 0.0000
vt 0.4641 0.5379 0.0000
vt 0.2415 0.5379 0.0000
vt 0.4540 0.6121 0.0000
vt 0.2517 0.6121 0.0000
vt 0.2440 0.6969 0.0000
vt 0.4666 0.6969 0.0000
vt 0.4666 0.8453 0.0000
vt 0.2440 0.8453 0.0000
vt 0.4564 0.9195 0.0000
vt 0.2541 0.9195 0.0000
vt 0.0070 0.6968 0.0000
vt 0.2296 0.6968 0.0000
vt 0.2140 0.7035 0.0000
vt 0.0226 0.7035 0.0000
vt 0.2296 0.8452 0.0000
vt 0.2140 0.8389 0.0000
vt 0.0070 0.8452 0.0000
vt 0.0226 0.8389 0.0000
vt 0.0060 0.3932 0.0000
vt 0.2286 0.3932 0.0000
vt 0.2130 0.3999 0.0000
vt 0.0216 0.3999 0.0000
vt 0.2286 0.5416 0.0000
vt 0.2130 0.5353 0.0000
vt 0.0060 0.5416 0.0000
vt 0.0216 0.5353 0.0000
vt 0.4824 0.6185 0.0000
vt 0.7050 0.6185 0.0000
vt 0.7050 0.7540 0.0000
vt 0.4824 0.7540 0.0000
vt 0.7735 0.0055 0.0000
vt 0.9961 0.0055 0.0000
vt 0.9961 0.1969 0.0000
vt 0.7735 0.1969 0.0000
vt 0.4759 0.4703 0.0000
vt 0.6985 0.4703 0.0000
vt 0.6985 0.6057 0.0000
vt 0.4759 0.6057 0.0000
vt 0.1916 0.9936 0.0000
vt 0.0450 0.9936 0.0000
vt 0.0413 0.9294 0.0000
vt 0.1953 0.9294 0.0000
vt 0.0171 0.9194 0.0000
vt 0.2140 0.8496 0.0000
vt 0.0226 0.8496 0.0000
vt 0.2195 0.9194 0.0000
vt 0.1906 0.6900 0.0000
vt 0.0440 0.6900 0.0000
vt 0.0403 0.6258 0.0000
vt 0.1943 0.6258 0.0000
vt 0.0161 0.6158 0.0000
vt 0.2130 0.5460 0.0000
vt 0.0216 0.5460 0.0000
vt 0.2185 0.6158 0.0000
vt 0.4785 0.9903 0.0000
vt 0.4785 0.7677 0.0000
vt 0.6699 0.7677 0.0000
vt 0.6699 0.9903 0.0000
vt 0.6514 0.3607 0.0000
vt 0.4490 0.3607 0.0000
vt 0.4389 0.2809 0.0000
vt 0.6615 0.2809 0.0000
vt 0.4772 0.3782 0.0000
vt 0.6998 0.3782 0.0000
vt 0.6897 0.4580 0.0000
vt 0.4873 0.4580 0.0000
vt 0.0042 0.2351 0.0000
vt 0.1508 0.2351 0.0000
vt 0.1244 0.2615 0.0000
vt 0.0306 0.2615 0.0000
vt 0.1508 0.3818 0.0000
vt 0.1244 0.3554 0.0000
vt 0.0042 0.3818 0.0000
vt 0.0306 0.3554 0.0000
vt 0.7599 0.0045 0.0000
vt 0.7599 0.1585 0.0000
vt 0.7335 0.1321 0.0000
vt 0.7335 0.0309 0.0000
vt 0.5576 0.1585 0.0000
vt 0.5840 0.1321 0.0000
vt 0.5576 0.0045 0.0000
vt 0.5840 0.0309 0.0000
vt 0.1886 0.1601 0.0000
vt 0.1849 0.2243 0.0000
vt 0.0910 0.2243 0.0000
vt 0.0873 0.1601 0.0000
vt 0.0132 0.0713 0.0000
vt 0.0774 0.0992 0.0000
vt 0.0774 0.1930 0.0000
vt 0.0132 0.2209 0.0000
vt 0.1630 0.2296 0.0000
vt 0.2271 0.2575 0.0000
vt 0.2271 0.3513 0.0000
vt 0.1630 0.3792 0.0000
vt 0.0867 0.1529 0.0000
vt 0.0904 0.0888 0.0000
vt 0.1843 0.0888 0.0000
vt 0.1880 0.1529 0.0000
vt 0.4286 0.9937 0.0000
vt 0.2820 0.9937 0.0000
vt 0.4261 0.6863 0.0000
vt 0.2795 0.6863 0.0000
vt 0.4271 0.1579 0.0000
vt 0.4271 0.3805 0.0000
vt 0.3679 0.3289 0.0000
vt 0.3679 0.1805 0.0000
vt 0.8318 0.9771 0.0000
vt 0.8318 0.8287 0.0000
vt 0.8483 0.8287 0.0000
vt 0.8483 0.9771 0.0000
vt 0.8196 0.9771 0.0000
vt 0.8196 0.8287 0.0000
vt 0.8026 0.9771 0.0000
vt 0.8026 0.8287 0.0000
vt 0.7904 0.9771 0.0000
vt 0.7904 0.8287 0.0000
vt 0.7740 0.9771 0.0000
vt 0.7740 0.8287 0.0000
vt 0.9639 0.9948 0.0000
vt 0.9468 0.9950 0.0000
vt 0.9549 0.9538 0.0000
vt 0.9557 0.9538 0.0000
vt 0.9648 0.9165 0.0000
vt 0.9567 0.8753 0.0000
vt 0.9771 0.8881 0.0000
vt 0.9769 0.9045 0.0000
vt 0.7653 0.9771 0.0000
vt 0.7653 0.8287 0.0000
vt 0.7532 0.9771 0.0000
vt 0.7532 0.8287 0.0000
vt 0.7361 0.9771 0.0000
vt 0.7361 0.8287 0.0000
vt 0.7247 0.9771 0.0000
vt 0.7247 0.8287 0.0000
vt 0.6071 0.1881 0.0000
vt 0.7555 0.1881 0.0000
vt 0.7555 0.1993 0.0000
vt 0.6071 0.1993 0.0000
vt 0.9569 0.8588 0.0000
vt 0.9857 0.8881 0.0000
vt 0.8867 0.9771 0.0000
vt 0.8697 0.9771 0.0000
vt 0.8697 0.8287 0.0000
vt 0.8867 0.8287 0.0000
vt 0.8575 0.9771 0.0000
vt 0.8575 0.8287 0.0000
vt 0.6071 0.1718 0.0000
vt 0.7555 0.1718 0.0000
vt 0.7555 0.1872 0.0000
vt 0.6071 0.1872 0.0000
vt 0.8975 0.8287 0.0000
vt 0.8975 0.9771 0.0000
vt 0.9547 0.9373 0.0000
vt 0.9556 0.9372 0.0000
vt 0.9561 0.8587 0.0000
vt 0.9559 0.8752 0.0000
vt 0.9360 0.8876 0.0000
vt 0.9267 0.8875 0.0000
vt 0.9259 0.9666 0.0000
vt 0.9345 0.9666 0.0000
vt 0.9849 0.9661 0.0000
vt 0.9757 0.9661 0.0000
vt 0.9347 0.9830 0.0000
vt 0.9758 0.9827 0.0000
vt 0.9138 0.9547 0.0000
vt 0.9136 0.9377 0.0000
vt 0.9967 0.9369 0.0000
vt 0.9968 0.9539 0.0000
vt 0.9478 0.9163 0.0000
vt 0.9358 0.9042 0.0000
vt 0.9980 0.8592 0.0000
vt 0.9979 0.8762 0.0000
vt 0.9148 0.8754 0.0000
vt 0.9149 0.8584 0.0000
vt 0.9682 0.8477 0.0000
vt 0.9868 0.8477 0.0000
vt 0.9248 0.9262 0.0000
vt 0.9435 0.9262 0.0000
vt 0.9258 0.8477 0.0000
vt 0.9453 0.8477 0.0000
vt 0.9664 0.9262 0.0000
vt 0.9859 0.9262 0.0000
vt 0.3484 0.1805 0.0000
vt 0.3484 0.3289 0.0000
vt 0.3255 0.3289 0.0000
vt 0.3255 0.1805 0.0000
vt 0.2358 0.1579 0.0000
vt 0.3069 0.1805 0.0000
vt 0.3069 0.3289 0.0000
vt 0.2358 0.3805 0.0000
# 196 texture coords

g Brewer
usemtl Material__27
s 1
f 1/1/1 2/2/1 3/3/1 4/4/1 
s 2
f 4/5/2 3/6/2 5/7/2 6/8/2 
s 16
f 5/7/3 7/9/3 8/10/3 6/8/3 
s 2
f 2/11/4 1/12/4 9/13/5 10/14/5 
f 9/13/5 11/15/6 12/16/6 10/14/5 
s off
f 1/17/7 4/18/7 13/19/7 14/20/7 
s 4
f 4/18/7 6/21/7 15/22/7 13/19/7 
f 6/21/7 9/23/8 16/24/7 15/22/7 
f 9/23/8 1/17/7 14/20/7 16/24/7 
s off
f 3/25/9 2/26/9 17/27/9 18/28/9 
s 4
f 2/26/9 10/29/10 19/30/9 17/27/9 
f 10/29/10 5/31/9 20/32/9 19/30/9 
f 5/31/9 3/25/9 18/28/9 20/32/9 
s 1
f 18/33/4 13/34/4 15/35/4 20/36/4 
s 2
f 20/37/1 15/38/1 16/39/1 19/40/1 
s 1
f 19/41/2 16/42/2 14/43/2 17/44/2 
s 4
f 21/45/11 22/46/12 23/47/13 24/48/11 
f 22/46/12 11/49/14 23/47/13 
f 9/23/8 6/21/7 25/50/7 26/51/15 
s off
f 6/21/16 8/52/16 24/48/16 25/50/16 
s 4
f 27/53/17 28/54/18 29/55/19 30/56/20 
s off
f 28/54/21 7/57/21 29/55/21 
s 4
f 5/31/9 10/29/10 31/58/22 32/59/9 
f 10/29/10 12/60/23 30/56/20 31/58/22 
s 1
f 31/61/24 26/62/24 25/63/24 32/64/24 
s 2
f 30/65/25 23/66/25 26/67/25 31/68/25 
f 32/69/26 25/70/26 24/71/26 29/72/26 
s 4
f 9/23/8 26/51/15 23/47/13 11/49/14 
s off
f 8/52/27 21/45/27 24/48/27 
f 5/31/28 32/59/28 29/55/28 7/57/28 
s 4
f 12/60/23 27/53/17 30/56/20 
s 1
f 22/73/24 21/74/24 33/75/24 34/76/24 
f 21/74/24 28/77/24 35/78/24 33/75/24 
f 28/77/24 27/79/24 36/80/24 35/78/24 
f 27/79/24 22/73/24 34/76/24 36/80/24 
f 24/81/1 23/82/1 37/83/1 38/84/1 
f 23/82/1 30/85/1 39/86/1 37/83/1 
f 30/85/1 29/87/1 40/88/1 39/86/1 
f 29/87/1 24/81/1 38/84/1 40/88/1 
s 2
f 40/89/29 35/90/29 36/91/29 39/92/29 
s 4
f 38/93/30 33/94/30 35/95/30 40/96/30 
f 39/97/31 36/98/31 34/99/31 37/100/31 
s 2
f 37/101/32 34/102/32 33/103/32 38/104/32 
f 22/105/33 27/106/33 12/16/6 11/15/6 
f 28/107/34 21/108/34 8/10/34 7/9/34 
f 13/109/24 18/110/24 41/111/24 42/112/24 
s 8
f 43/113/35 44/114/36 45/115/37 46/116/37 
f 43/113/35 47/117/38 48/118/39 44/114/36 
f 47/117/38 49/119/40 50/120/40 48/118/39 
f 49/119/40 51/121/41 52/122/41 50/120/40 
f 53/123/42 54/124/42 52/122/41 51/121/41 
s 1
f 48/125/7 50/126/43 55/127/7 56/128/43 
f 49/129/44 57/130/45 53/131/45 51/132/44 
s 16
f 58/133/40 59/134/46 54/124/47 53/123/47 
f 58/133/40 60/135/41 61/136/48 59/134/46 
f 60/135/41 62/137/49 63/138/49 61/136/48 
f 64/139/50 65/140/50 63/138/49 62/137/49 
f 66/141/51 67/142/51 68/143/51 69/144/51 
s 32
f 57/130/45 66/145/45 58/146/45 53/131/45 
f 70/147/52 71/148/36 72/149/36 73/150/52 
f 71/148/36 74/151/38 75/152/39 72/149/36 
f 46/116/47 45/115/53 75/152/39 74/151/38 
f 76/153/50 77/154/50 78/155/50 79/156/54 
f 70/147/52 73/150/52 42/157/51 41/158/55 
s 4
f 56/128/7 55/127/7 67/159/7 78/160/7 
s 2
f 78/155/56 67/142/56 66/141/56 79/156/56 
s 4
f 79/161/45 66/145/45 57/130/45 80/162/45 
s 16
f 80/162/44 46/163/44 74/164/44 79/161/44 
s 32
f 59/165/57 67/159/7 55/127/7 54/166/58 
s 16
f 56/128/43 78/160/43 75/167/43 45/168/43 
s 1
f 50/126/43 52/169/43 54/166/7 55/127/7 
f 45/168/43 44/170/7 48/125/7 56/128/43 
s 32
f 59/165/57 61/171/7 63/172/7 67/159/7 
s 16
f 73/173/7 72/174/7 75/167/43 78/160/43 
s 1
f 47/175/45 43/176/45 46/163/44 80/162/44 
f 47/175/45 80/162/44 57/130/45 49/129/44 
s 32
f 62/177/9 60/178/9 58/146/45 66/145/45 
s 16
f 74/164/44 71/179/9 70/180/9 79/161/44 
s 32
f 62/177/9 66/145/45 69/181/9 64/182/9 
f 67/159/7 63/172/7 65/183/7 68/184/7 
s 16
f 79/161/44 70/180/9 41/185/9 76/186/9 
f 73/173/7 78/160/43 77/187/7 42/188/57 
s 2
f 77/189/24 76/190/24 18/110/24 69/191/24 
f 69/191/24 68/192/24 77/189/24 
f 14/193/24 68/192/24 65/194/24 
f 14/193/24 65/194/24 64/195/24 17/196/24 
f 18/110/24 76/190/24 41/111/24 
f 17/196/24 64/195/24 69/191/24 
f 18/110/24 17/196/24 69/191/24 
f 13/109/24 42/112/24 77/189/24 
f 13/109/24 77/189/24 68/192/24 14/193/24 
# 81 polygons - 10 triangles

