# Blender v2.79 (sub 0) OBJ File: 'Mushroom1.blend'
# www.blender.org
mtllib Mushroom1.mtl
o Circle
v -0.045661 0.006876 -1.012476
v -0.752768 0.006876 -0.719583
v -1.045661 0.006876 -0.012476
v -0.752768 0.006876 0.694631
v -0.045661 0.006876 0.987524
v 0.661446 0.006876 0.694631
v 0.954339 0.006876 -0.012476
v 0.661446 0.006876 -0.719583
v -0.221152 3.057811 -0.601254
v -0.778017 3.057811 -0.370593
v -1.008678 3.057811 0.186272
v -0.778017 3.057811 0.743137
v -0.221152 3.057811 0.973799
v 0.335713 3.057811 0.743137
v 0.566374 3.057811 0.186272
v 0.335713 3.057811 -0.370593
v -0.221152 5.584911 -0.532694
v -0.729538 5.584911 -0.322114
v -0.940118 5.584911 0.186272
v -0.729538 5.584911 0.694658
v -0.113570 5.584911 0.823760
v 0.261130 5.584911 0.668554
v 0.416336 5.584911 0.293854
v 0.287234 5.584911 -0.322114
v 0.073778 9.438031 -0.597192
v -0.390419 9.467409 -0.404915
v -0.582696 9.428317 0.059283
v -0.390419 9.449469 0.523481
v 0.073779 9.533947 0.715758
v 0.537976 9.494958 0.523480
v 0.730253 9.574668 0.059283
v 0.537976 9.592181 -0.404915
v -0.109874 9.168715 -6.582543
v -3.453027 8.956628 -5.686749
v -5.900385 9.458207 -3.239390
v -6.796179 9.139390 0.103763
v -5.900385 9.172822 3.446915
v -3.453027 9.352592 5.894272
v -0.109876 9.136129 6.790067
v 3.233279 8.788563 5.894273
v 5.680633 9.094827 3.446917
v 6.576431 8.681046 0.103765
v 5.680640 9.006288 -3.239388
v 3.233282 9.438177 -5.686746
v -0.429882 10.822860 -3.787416
v -2.364401 10.822860 -3.269064
v -3.780567 10.822860 -1.852898
v -4.298919 10.822860 0.081621
v -3.780567 10.822860 2.016139
v -2.364401 10.822860 3.432305
v -0.429883 10.822860 3.950657
v 1.504637 10.822860 3.432305
v 2.920801 10.822860 2.016140
v 3.439155 10.822860 0.081623
v 2.920804 10.822860 -1.852896
v 1.504638 10.822860 -3.269063
v -0.429882 11.414088 -1.988820
v -1.465102 11.414088 -1.711434
v -2.222937 11.414088 -0.953599
v -2.500323 11.414088 0.081621
v -2.222937 11.414088 1.116841
v -1.465102 11.414088 1.874675
v -0.429882 11.414088 2.152062
v 0.605338 11.414088 1.874675
v 1.363172 11.414088 1.116842
v 1.640559 11.414088 0.081622
v 1.363173 11.414088 -0.953599
v 0.605340 11.414088 -1.711433
v -0.290419 11.951914 -1.017537
v -0.802035 11.951914 -0.880450
v -1.176564 11.951914 -0.505921
v -1.313650 11.951914 0.005695
v -1.176564 11.951914 0.517311
v -0.802035 11.951914 0.891840
v -0.290419 11.951914 1.028927
v 0.221198 11.951914 0.891840
v 0.595726 11.951914 0.517311
v 0.732814 11.951914 0.005696
v 0.595727 11.951914 -0.505920
v 0.221198 11.951914 -0.880449
v -0.095438 12.159184 -0.204023
v -0.161782 12.159184 -0.186246
v -0.210348 12.159184 -0.137679
v -0.228125 12.159184 -0.071336
v -0.210348 12.159184 -0.004993
v -0.161782 12.159184 0.043574
v -0.095438 12.159184 0.061351
v -0.029095 12.159184 0.043574
v 0.019472 12.159184 -0.004993
v 0.037248 12.159184 -0.071336
v 0.019472 12.159184 -0.137679
v -0.029095 12.159184 -0.186246
v -4.652778 10.133509 -2.437776
v -5.330814 9.980647 0.092692
v 4.791058 9.760886 0.092694
v 4.113024 9.916829 -2.437775
v -0.269879 9.979083 5.153627
v 2.260590 9.812437 4.475591
v -4.652778 9.996676 2.623160
v 2.260592 10.123905 -4.290206
v -0.269878 9.994707 -4.968245
v -2.800346 9.893019 -4.290208
v 4.113019 9.959280 2.623161
v -2.800346 10.082870 4.475590
v -2.337821 5.584911 -1.930396
v -3.214573 5.584911 0.186272
v -2.337821 5.584911 2.302941
v 0.226767 5.584911 2.840457
v 2.433033 5.584911 0.634191
v 1.895516 5.584911 -1.930396
v -0.221152 5.584911 -0.532694
v -0.729538 5.584911 -0.322114
v -0.940118 5.584911 0.186272
v -0.729538 5.584911 0.694658
v -0.113570 5.584911 0.823760
v 0.416336 5.584911 0.293854
v 0.287234 5.584911 -0.322114
v -2.337821 5.584911 -1.930396
v -3.214573 5.584911 0.186272
v -2.337821 5.584911 2.302941
v 0.226767 5.584911 2.840457
v 2.433033 5.584911 0.634191
v 1.895516 5.584911 -1.930396
v 1.895516 5.584911 -1.930396
vn 0.9199 0.0922 0.3811
vn -0.3826 -0.0179 0.9237
vn -0.9233 0.0361 -0.3824
vn 0.9147 0.1410 -0.3789
vn 0.3826 0.0262 0.9236
vn -0.9238 -0.0137 0.3826
vn -0.3807 0.1020 -0.9191
vn 0.3786 0.1450 -0.9141
vn 0.9550 0.0466 -0.2929
vn 0.3824 0.0385 0.9232
vn -0.9236 0.0251 0.3826
vn -0.3826 0.0251 -0.9236
vn 0.3826 0.0251 -0.9236
vn 0.9232 0.0385 0.3824
vn -0.2929 0.0466 0.9550
vn -0.9236 0.0251 -0.3826
vn -0.2886 0.0536 0.9559
vn -0.9225 0.0729 -0.3792
vn 0.9551 -0.0788 -0.2855
vn 0.3830 0.0071 0.9237
vn -0.9202 0.0978 0.3790
vn -0.3823 0.0137 -0.9239
vn 0.3883 -0.0442 -0.9205
vn 0.9244 -0.0510 0.3780
vn 0.0000 -1.0000 -0.0000
vn -0.1011 0.9949 -0.0055
vn -0.5966 0.7915 -0.1328
vn 0.5882 0.7982 -0.1297
vn 0.1849 0.7936 0.5797
vn -0.6197 0.7677 0.1633
vn 0.4052 0.8438 -0.3518
vn -0.1786 0.7797 -0.6001
vn 0.4021 0.8039 0.4382
vn -0.4351 0.7996 0.4140
vn 0.1183 0.8383 -0.5322
vn -0.4057 0.7877 -0.4637
vn 0.5805 0.8054 0.1198
vn -0.1312 0.8177 0.5604
vn -0.0834 0.9467 -0.3112
vn 0.2278 0.9467 0.2278
vn -0.2278 0.9467 0.2278
vn 0.0834 0.9467 -0.3112
vn -0.2278 0.9467 -0.2278
vn 0.3112 0.9467 0.0834
vn -0.0834 0.9467 0.3112
vn -0.3112 0.9467 -0.0834
vn 0.3112 0.9467 -0.0834
vn 0.0834 0.9467 0.3112
vn -0.3112 0.9467 0.0834
vn 0.2278 0.9467 -0.2278
vn 0.3752 0.8476 -0.3752
vn -0.1251 0.8755 -0.4668
vn 0.3438 0.8738 0.3438
vn -0.2966 0.9078 0.2966
vn 0.1325 0.8589 -0.4946
vn -0.3208 0.8912 -0.3208
vn 0.4969 0.8575 0.1332
vn -0.1120 0.9016 0.4178
vn -0.4161 0.9024 -0.1115
vn 0.5134 0.8471 -0.1376
vn 0.1181 0.8898 0.4408
vn -0.4046 0.9080 0.1084
vn -0.1839 0.9817 0.0493
vn 0.2096 0.9551 -0.2096
vn -0.0623 0.9706 -0.2324
vn 0.1823 0.9662 0.1823
vn -0.1366 0.9812 0.1366
vn 0.0702 0.9625 -0.2621
vn -0.1517 0.9767 -0.1517
vn 0.2772 0.9579 0.0743
vn -0.0533 0.9786 0.1989
vn -0.1908 0.9803 -0.0511
vn 0.2927 0.9530 -0.0784
vn 0.0591 0.9736 0.2205
vn 0.0000 1.0000 0.0000
vn -0.0239 -0.9997 -0.0087
vn -0.0713 0.8914 0.4475
vn 0.4934 0.8688 0.0417
vn -0.2623 0.8722 -0.4128
vn 0.0545 0.9004 -0.4316
vn -0.3602 0.8814 0.3056
vn 0.3004 0.8696 0.3920
vn -0.1736 0.8620 -0.4762
vn 0.3658 0.9014 -0.2318
vn -0.4910 0.8623 0.1243
vn 0.1983 0.8674 0.4565
vn 0.4985 0.8646 -0.0627
vn -0.4745 0.8784 -0.0566
usemtl Material.001
s off
f 7//1 15//1 14//1 6//1
f 5//2 13//2 12//2 4//2
f 3//3 11//3 10//3 2//3
f 8//4 16//4 15//4 7//4
f 6//5 14//5 13//5 5//5
f 4//6 12//6 11//6 3//6
f 2//7 10//7 9//7 1//7
f 1//8 9//8 16//8 8//8
f 16//9 24//9 23//9 15//9
f 14//10 22//10 21//10 13//10
f 12//11 20//11 19//11 11//11
f 10//12 18//12 17//12 9//12
f 9//13 17//13 24//13 16//13
f 15//14 23//14 22//14 14//14
f 13//15 21//15 20//15 12//15
f 11//16 19//16 18//16 10//16
f 21//17 29//17 28//17 20//17
f 19//18 27//18 26//18 18//18
f 24//19 32//19 31//19 23//19
f 22//20 30//20 29//20 21//20
f 20//21 28//21 27//21 19//21
f 18//22 26//22 25//22 17//22
f 17//23 25//23 32//23 24//23
f 23//24 31//24 30//24 22//24
f 2//25 1//25 8//25 7//25 6//25 5//25 4//25 3//25
usemtl Material.002
f 26//26 27//26 28//26 29//26 30//26 31//26 32//26 25//26
f 94//27 48//27 47//27 93//27
f 96//28 55//28 54//28 95//28
f 98//29 52//29 51//29 97//29
f 99//30 49//30 48//30 94//30
f 100//31 56//31 55//31 96//31
f 102//32 46//32 45//32 101//32
f 103//33 53//33 52//33 98//33
f 104//34 50//34 49//34 99//34
f 101//35 45//35 56//35 100//35
f 93//36 47//36 46//36 102//36
f 95//37 54//37 53//37 103//37
f 97//38 51//38 50//38 104//38
f 46//39 58//39 57//39 45//39
f 53//40 65//40 64//40 52//40
f 50//41 62//41 61//41 49//41
f 45//42 57//42 68//42 56//42
f 47//43 59//43 58//43 46//43
f 54//44 66//44 65//44 53//44
f 51//45 63//45 62//45 50//45
f 48//46 60//46 59//46 47//46
f 55//47 67//47 66//47 54//47
f 52//48 64//48 63//48 51//48
f 49//49 61//49 60//49 48//49
f 56//50 68//50 67//50 55//50
f 68//51 80//51 79//51 67//51
f 58//52 70//52 69//52 57//52
f 65//53 77//53 76//53 64//53
f 62//54 74//54 73//54 61//54
f 57//55 69//55 80//55 68//55
f 59//56 71//56 70//56 58//56
f 66//57 78//57 77//57 65//57
f 63//58 75//58 74//58 62//58
f 60//59 72//59 71//59 59//59
f 67//60 79//60 78//60 66//60
f 64//61 76//61 75//61 63//61
f 61//62 73//62 72//62 60//62
f 73//63 85//63 84//63 72//63
f 80//64 92//64 91//64 79//64
f 70//65 82//65 81//65 69//65
f 77//66 89//66 88//66 76//66
f 74//67 86//67 85//67 73//67
f 69//68 81//68 92//68 80//68
f 71//69 83//69 82//69 70//69
f 78//70 90//70 89//70 77//70
f 75//71 87//71 86//71 74//71
f 72//72 84//72 83//72 71//72
f 79//73 91//73 90//73 78//73
f 76//74 88//74 87//74 75//74
f 82//75 83//75 84//75 85//75 86//75 87//75 88//75 89//75 90//75 91//75 92//75 81//75
f 34//76 33//76 44//76 43//76 42//76 41//76 40//76 39//76 38//76 37//76 36//76 35//76
f 39//77 97//77 104//77 38//77
f 42//78 95//78 103//78 41//78
f 35//79 93//79 102//79 34//79
f 33//80 101//80 100//80 44//80
f 38//81 104//81 99//81 37//81
f 41//82 103//82 98//82 40//82
f 34//83 102//83 101//83 33//83
f 44//84 100//84 96//84 43//84
f 37//85 99//85 94//85 36//85
f 40//86 98//86 97//86 39//86
f 43//87 96//87 95//87 42//87
f 36//88 94//88 93//88 35//88
l 124 123
l 17 111
l 110 123
l 115 21
l 108 121
l 120 107
l 20 114
l 113 19
l 106 119
l 118 105
l 18 112
l 117 24
l 122 109
l 23 116
